<svg xmlns="http://www.w3.org/2000/svg" xmlns:xlink="http://www.w3.org/1999/xlink" width="500" zoomAndPan="magnify" viewBox="0 0 375 374.999991" height="500" preserveAspectRatio="xMidYMid meet" version="1.0"><defs><clipPath id="550df31793"><path d="M 110.179688 238.476562 L 121 238.476562 L 121 254 L 110.179688 254 Z M 110.179688 238.476562 " clip-rule="nonzero"/></clipPath><clipPath id="2e400d12ee"><path d="M 11.4375 11.4375 L 363.9375 11.4375 L 363.9375 363.9375 L 11.4375 363.9375 Z M 11.4375 11.4375 " clip-rule="nonzero"/></clipPath></defs><g clip-path="url(#550df31793)"><path fill="#ffffff" d="M 115.132812 240.195312 C 114.875 242.484375 114.542969 245.917969 111.726562 246.140625 C 110.179688 246.265625 110.210938 247.039062 112.222656 247.445312 C 114.234375 247.847656 115.011719 249.984375 115.132812 251.902344 C 115.257812 253.824219 116.15625 254.351562 116.464844 251.902344 C 116.777344 249.457031 117.054688 247.222656 119.6875 246.886719 C 120.894531 246.730469 121.207031 246.234375 119.8125 245.957031 C 117.726562 245.539062 116.558594 242.304688 116.1875 240.226562 C 115.878906 238.492188 115.320312 238.554688 115.132812 240.195312 Z M 115.132812 240.195312 " fill-opacity="1" fill-rule="nonzero"/></g><g clip-path="url(#2e400d12ee)"><path fill="#ffffff" d="M 187.5 11.4375 C 90.257812 11.4375 11.4375 90.257812 11.4375 187.5 C 11.4375 284.738281 90.257812 363.5625 187.5 363.5625 C 284.738281 363.5625 363.5625 284.738281 363.5625 187.5 C 363.5625 90.257812 284.738281 11.4375 187.5 11.4375 Z M 221.125 291.269531 C 215.738281 292.308594 213.820312 289 213.820312 286.144531 C 213.820312 282.640625 213.960938 271.164062 213.960938 256.902344 C 213.960938 246.953125 210.5625 240.457031 206.757812 237.164062 C 230.40625 234.523438 255.246094 225.511719 255.246094 184.558594 C 255.246094 172.921875 251.144531 163.394531 244.332031 155.949219 C 245.421875 153.253906 249.066406 142.410156 243.273438 127.742188 C 243.273438 127.742188 234.382812 124.871094 214.101562 138.675781 C 205.613281 136.316406 196.53125 135.136719 187.515625 135.085938 C 178.484375 135.136719 169.398438 136.316406 160.929688 138.675781 C 140.648438 124.890625 131.738281 127.742188 131.738281 127.742188 C 125.964844 142.425781 129.609375 153.253906 130.699219 155.949219 C 123.90625 163.394531 119.765625 172.921875 119.765625 184.558594 C 119.765625 225.40625 144.558594 234.542969 168.132812 237.234375 C 165.101562 239.894531 162.355469 244.59375 161.386719 251.480469 C 155.332031 254.207031 139.960938 258.910156 130.488281 242.625 C 130.488281 242.625 124.890625 232.394531 114.238281 231.636719 C 114.238281 231.636719 103.867188 231.496094 113.515625 238.117188 C 113.515625 238.117188 120.472656 241.390625 125.296875 253.714844 C 125.296875 253.714844 131.527344 274.457031 161.070312 268.011719 C 161.125 276.902344 161.210938 283.609375 161.210938 286.144531 C 161.210938 288.964844 159.277344 292.253906 153.957031 291.289062 C 111.757812 277.183594 81.332031 237.234375 81.332031 190.140625 C 81.332031 131.246094 128.871094 83.535156 187.515625 83.535156 C 246.164062 83.535156 293.699219 131.265625 293.699219 190.140625 C 293.699219 237.21875 263.3125 277.148438 221.144531 291.269531 Z M 221.125 291.269531 " fill-opacity="1" fill-rule="nonzero"/></g></svg>