<svg xmlns="http://www.w3.org/2000/svg" xmlns:xlink="http://www.w3.org/1999/xlink" width="500" zoomAndPan="magnify" viewBox="0 0 375 374.999991" height="500" preserveAspectRatio="xMidYMid meet" version="1.0"><defs><clipPath id="26e45cd9ad"><path d="M 110.179688 238.476562 L 121 238.476562 L 121 254 L 110.179688 254 Z M 110.179688 238.476562 " clip-rule="nonzero"/></clipPath><clipPath id="2f50061791"><path d="M 11.21875 11.21875 L 363.71875 11.21875 L 363.71875 363.71875 L 11.21875 363.71875 Z M 11.21875 11.21875 " clip-rule="nonzero"/></clipPath></defs><g clip-path="url(#26e45cd9ad)"><path fill="#ffffff" d="M 115.132812 240.195312 C 114.875 242.484375 114.542969 245.917969 111.726562 246.140625 C 110.179688 246.265625 110.210938 247.039062 112.222656 247.445312 C 114.234375 247.847656 115.011719 249.984375 115.132812 251.902344 C 115.257812 253.824219 116.15625 254.351562 116.464844 251.902344 C 116.777344 249.457031 117.054688 247.222656 119.6875 246.886719 C 120.894531 246.730469 121.207031 246.234375 119.8125 245.957031 C 117.726562 245.539062 116.558594 242.304688 116.1875 240.226562 C 115.878906 238.492188 115.320312 238.554688 115.132812 240.195312 Z M 115.132812 240.195312 " fill-opacity="1" fill-rule="nonzero"/></g><path fill="#ffffff" d="M 187.496094 148.425781 C 165.976562 148.425781 148.425781 165.976562 148.425781 187.496094 C 148.425781 209.015625 165.976562 226.570312 187.496094 226.570312 C 209.015625 226.570312 226.570312 209.015625 226.570312 187.496094 C 226.570312 165.976562 209.015625 148.425781 187.496094 148.425781 Z M 187.496094 148.425781 " fill-opacity="1" fill-rule="nonzero"/><path fill="#ffffff" d="M 240 91.652344 L 134.996094 91.652344 C 111.1875 91.652344 91.652344 111.035156 91.652344 134.996094 L 91.652344 240 C 91.652344 263.808594 111.035156 283.34375 134.996094 283.34375 L 240 283.34375 C 263.808594 283.34375 283.34375 263.960938 283.34375 240 L 283.34375 134.996094 C 283.191406 111.035156 263.808594 91.652344 240 91.652344 Z M 187.496094 246.257812 C 154.988281 246.257812 128.585938 219.855469 128.585938 187.34375 C 128.585938 154.835938 154.988281 128.433594 187.496094 128.433594 C 220.007812 128.433594 246.410156 154.835938 246.410156 187.34375 C 246.257812 219.855469 219.855469 246.257812 187.496094 246.257812 Z M 250.53125 138.351562 C 242.746094 138.351562 236.335938 131.941406 236.335938 124.160156 C 236.335938 116.375 242.746094 109.964844 250.53125 109.964844 C 258.316406 109.964844 264.726562 116.375 264.726562 124.160156 C 264.726562 132.09375 258.46875 138.351562 250.53125 138.351562 Z M 250.53125 138.351562 " fill-opacity="1" fill-rule="nonzero"/><g clip-path="url(#2f50061791)"><path fill="#ffffff" d="M 187.496094 11.21875 C 90.125 11.21875 11.21875 90.125 11.21875 187.496094 C 11.21875 284.871094 90.125 363.777344 187.496094 363.777344 C 284.871094 363.777344 363.777344 284.871094 363.777344 187.496094 C 363.625 90.125 284.71875 11.21875 187.496094 11.21875 Z M 303.03125 240 C 303.03125 274.796875 274.644531 303.1875 239.847656 303.1875 L 134.996094 303.1875 C 100.199219 303.1875 71.808594 274.796875 71.808594 240 L 71.808594 134.996094 C 71.808594 100.199219 100.199219 71.808594 134.996094 71.808594 L 240 71.808594 C 274.796875 71.808594 303.1875 100.199219 303.1875 134.996094 L 303.1875 240 Z M 303.03125 240 " fill-opacity="1" fill-rule="nonzero"/></g></svg>