<svg xmlns="http://www.w3.org/2000/svg" xmlns:xlink="http://www.w3.org/1999/xlink" width="500" zoomAndPan="magnify" viewBox="0 0 375 374.999991" height="500" preserveAspectRatio="xMidYMid meet" version="1.0"><defs><clipPath id="373801db5b"><path d="M 11.273438 11.273438 L 363.773438 11.273438 L 363.773438 363.773438 L 11.273438 363.773438 Z M 11.273438 11.273438 " clip-rule="nonzero"/></clipPath></defs><g clip-path="url(#373801db5b)"><path fill="#ffffff" d="M 187.496094 11.273438 C 90.167969 11.273438 11.273438 90.167969 11.273438 187.496094 C 11.273438 284.820312 90.167969 363.714844 187.496094 363.714844 C 284.820312 363.714844 363.714844 284.820312 363.714844 187.496094 C 363.714844 90.167969 284.820312 11.273438 187.496094 11.273438 Z M 134.3125 273.878906 L 97.269531 273.878906 L 97.269531 156.515625 L 134.3125 156.515625 Z M 114.839844 141.835938 L 114.574219 141.835938 C 101.164062 141.835938 92.476562 132.867188 92.476562 121.484375 C 92.476562 110.097656 101.429688 101.113281 115.101562 101.113281 C 128.777344 101.113281 137.167969 109.871094 137.449219 121.464844 C 137.449219 132.832031 128.777344 141.835938 114.855469 141.835938 Z M 282.511719 273.878906 L 240.503906 273.878906 L 240.503906 213.136719 C 240.503906 197.238281 233.929688 186.382812 219.480469 186.382812 C 208.429688 186.382812 202.28125 193.714844 199.425781 200.765625 C 198.351562 203.300781 198.527344 206.828125 198.527344 210.351562 L 198.527344 273.859375 L 156.921875 273.859375 C 156.921875 273.859375 157.449219 166.277344 156.921875 156.496094 L 198.527344 156.496094 L 198.527344 174.914062 C 200.976562 166.859375 214.28125 155.371094 235.496094 155.371094 C 261.824219 155.371094 282.511719 172.25 282.511719 208.605469 Z M 282.511719 273.878906 " fill-opacity="1" fill-rule="nonzero"/></g></svg>