<svg xmlns="http://www.w3.org/2000/svg" xmlns:xlink="http://www.w3.org/1999/xlink" width="500" zoomAndPan="magnify" viewBox="0 0 375 374.999991" height="500" preserveAspectRatio="xMidYMid meet" version="1.0"><defs><clipPath id="6a412989ba"><path d="M 67 10.03125 L 308 10.03125 L 308 225 L 67 225 Z M 67 10.03125 " clip-rule="nonzero"/></clipPath><clipPath id="f8ab9ea6ad"><path d="M 19.792969 64 L 355.042969 64 L 355.042969 293 L 19.792969 293 Z M 19.792969 64 " clip-rule="nonzero"/></clipPath><clipPath id="867e123908"><path d="M 129 330 L 246 330 L 246 364.78125 L 129 364.78125 Z M 129 330 " clip-rule="nonzero"/></clipPath><clipPath id="345571eb90"><path d="M 19.792969 242 L 355.042969 242 L 355.042969 252 L 19.792969 252 Z M 19.792969 242 " clip-rule="nonzero"/></clipPath></defs><g clip-path="url(#6a412989ba)"><path fill="#fd6f00" d="M 284.945312 224.921875 L 90.066406 224.921875 C 77.394531 224.921875 67.09375 214.617188 67.09375 201.945312 L 67.09375 33.070312 C 67.09375 20.402344 77.402344 10.097656 90.066406 10.097656 L 284.945312 10.097656 C 297.617188 10.097656 307.921875 20.410156 307.921875 33.070312 L 307.921875 201.945312 C 307.921875 214.617188 297.617188 224.921875 284.945312 224.921875 Z M 90.066406 19.3125 C 82.476562 19.3125 76.308594 25.488281 76.308594 33.070312 L 76.308594 201.945312 C 76.308594 209.539062 82.484375 215.707031 90.066406 215.707031 L 284.945312 215.707031 C 292.539062 215.707031 298.707031 209.53125 298.707031 201.945312 L 298.707031 33.070312 C 298.707031 25.480469 292.53125 19.3125 284.945312 19.3125 Z M 90.066406 19.3125 " fill-opacity="1" fill-rule="nonzero"/></g><path fill="#fd6f00" d="M 303.3125 66.347656 L 71.699219 66.347656 C 69.15625 66.347656 67.09375 64.285156 67.09375 61.742188 C 67.09375 59.199219 69.15625 57.132812 71.699219 57.132812 L 303.320312 57.132812 C 305.867188 57.132812 307.929688 59.199219 307.929688 61.742188 C 307.929688 64.285156 305.867188 66.347656 303.3125 66.347656 Z M 303.3125 66.347656 " fill-opacity="1" fill-rule="nonzero"/><path fill="#fd6f00" d="M 111.90625 50.765625 L 92.984375 50.765625 C 90.441406 50.765625 88.378906 48.703125 88.378906 46.160156 L 88.378906 30.28125 C 88.378906 27.734375 90.441406 25.671875 92.984375 25.671875 L 111.914062 25.671875 C 114.457031 25.671875 116.519531 27.734375 116.519531 30.28125 L 116.519531 46.160156 C 116.511719 48.710938 114.457031 50.765625 111.90625 50.765625 Z M 97.59375 41.550781 L 107.304688 41.550781 L 107.304688 34.886719 L 97.59375 34.886719 Z M 97.59375 41.550781 " fill-opacity="1" fill-rule="nonzero"/><path fill="#fd6f00" d="M 146.535156 50.765625 L 127.605469 50.765625 C 125.0625 50.765625 123 48.703125 123 46.160156 L 123 30.28125 C 123 27.734375 125.0625 25.671875 127.605469 25.671875 L 146.535156 25.671875 C 149.078125 25.671875 151.140625 27.734375 151.140625 30.28125 L 151.140625 46.160156 C 151.140625 48.710938 149.085938 50.765625 146.535156 50.765625 Z M 132.222656 41.550781 L 141.933594 41.550781 L 141.933594 34.886719 L 132.222656 34.886719 Z M 132.222656 41.550781 " fill-opacity="1" fill-rule="nonzero"/><path fill="#fd6f00" d="M 181.164062 50.765625 L 162.238281 50.765625 C 159.691406 50.765625 157.628906 48.703125 157.628906 46.160156 L 157.628906 30.28125 C 157.628906 27.734375 159.691406 25.671875 162.238281 25.671875 L 181.164062 25.671875 C 183.707031 25.671875 185.769531 27.734375 185.769531 30.28125 L 185.769531 46.160156 C 185.769531 48.710938 183.714844 50.765625 181.164062 50.765625 Z M 166.851562 41.550781 L 176.5625 41.550781 L 176.5625 34.886719 L 166.851562 34.886719 Z M 166.851562 41.550781 " fill-opacity="1" fill-rule="nonzero"/><path fill="#fd6f00" d="M 282.027344 50.765625 L 218.824219 50.765625 C 216.28125 50.765625 214.214844 48.703125 214.214844 46.160156 L 214.214844 30.28125 C 214.214844 27.734375 216.28125 25.671875 218.824219 25.671875 L 282.027344 25.671875 C 284.570312 25.671875 286.636719 27.734375 286.636719 30.28125 L 286.636719 46.160156 C 286.636719 48.710938 284.570312 50.765625 282.027344 50.765625 Z M 223.433594 41.550781 L 277.417969 41.550781 L 277.417969 34.886719 L 223.433594 34.886719 Z M 223.433594 41.550781 " fill-opacity="1" fill-rule="nonzero"/><g clip-path="url(#f8ab9ea6ad)"><path fill="#fd6f00" d="M 323.855469 292.8125 L 51.15625 292.8125 C 33.863281 292.8125 19.792969 278.742188 19.792969 261.4375 L 19.792969 95.554688 C 19.792969 78.261719 33.863281 64.1875 51.15625 64.1875 L 71.691406 64.1875 C 74.234375 64.1875 76.300781 66.253906 76.300781 68.796875 L 76.300781 201.953125 C 76.300781 209.546875 82.476562 215.714844 90.058594 215.714844 L 284.9375 215.714844 C 292.53125 215.714844 298.699219 209.539062 298.699219 201.953125 L 298.699219 68.789062 C 298.699219 66.246094 300.761719 64.179688 303.304688 64.179688 L 323.839844 64.179688 C 341.132812 64.179688 355.207031 78.253906 355.207031 95.546875 L 355.207031 261.4375 C 355.222656 278.742188 341.152344 292.8125 323.855469 292.8125 Z M 51.15625 73.394531 C 38.941406 73.394531 29.007812 83.332031 29.007812 95.546875 L 29.007812 261.4375 C 29.007812 273.652344 38.941406 283.597656 51.15625 283.597656 L 323.847656 283.597656 C 336.0625 283.597656 346.007812 273.660156 346.007812 261.4375 L 346.007812 95.554688 C 346.007812 83.339844 336.070312 73.40625 323.847656 73.40625 L 307.921875 73.40625 L 307.921875 201.953125 C 307.921875 214.625 297.617188 224.929688 284.945312 224.929688 L 90.066406 224.929688 C 77.394531 224.929688 67.09375 214.625 67.09375 201.953125 L 67.09375 73.40625 L 51.15625 73.40625 Z M 51.15625 73.394531 " fill-opacity="1" fill-rule="nonzero"/></g><path fill="#fd6f00" d="M 157.820312 339.625 C 157.085938 339.625 156.339844 339.449219 155.652344 339.078125 C 153.414062 337.878906 152.566406 335.089844 153.765625 332.839844 C 166.53125 308.996094 155.78125 291.417969 155.316406 290.683594 C 153.964844 288.539062 154.597656 285.691406 156.734375 284.332031 C 158.867188 282.972656 161.699219 283.582031 163.078125 285.707031 C 163.667969 286.621094 177.308594 308.386719 161.894531 337.191406 C 161.0625 338.734375 159.46875 339.625 157.820312 339.625 Z M 157.820312 339.625 " fill-opacity="1" fill-rule="nonzero"/><path fill="#fd6f00" d="M 217.191406 339.625 C 215.542969 339.625 213.960938 338.742188 213.128906 337.191406 C 197.714844 308.394531 211.359375 286.628906 211.945312 285.707031 C 213.320312 283.570312 216.175781 282.957031 218.3125 284.332031 C 220.449219 285.707031 221.0625 288.546875 219.695312 290.683594 C 219.207031 291.460938 208.496094 309.019531 221.246094 332.839844 C 222.449219 335.082031 221.609375 337.871094 219.359375 339.078125 C 218.671875 339.449219 217.921875 339.625 217.191406 339.625 Z M 217.191406 339.625 " fill-opacity="1" fill-rule="nonzero"/><g clip-path="url(#867e123908)"><path fill="#fd6f00" d="M 241.292969 364.886719 L 133.71875 364.886719 C 131.175781 364.886719 129.109375 362.820312 129.109375 360.277344 L 129.109375 346.007812 C 129.109375 337.40625 136.109375 330.410156 144.710938 330.410156 L 230.296875 330.410156 C 238.894531 330.410156 245.894531 337.40625 245.894531 346.007812 L 245.894531 360.277344 C 245.902344 362.820312 243.839844 364.886719 241.292969 364.886719 Z M 138.328125 355.671875 L 236.679688 355.671875 L 236.679688 346.007812 C 236.679688 342.488281 233.816406 339.625 230.296875 339.625 L 144.71875 339.625 C 141.199219 339.625 138.335938 342.488281 138.335938 346.007812 L 138.335938 355.671875 Z M 138.328125 355.671875 " fill-opacity="1" fill-rule="nonzero"/></g><g clip-path="url(#345571eb90)"><path fill="#fd6f00" d="M 350.613281 251.230469 L 24.398438 251.230469 C 21.855469 251.230469 19.792969 249.167969 19.792969 246.621094 C 19.792969 244.078125 21.855469 242.015625 24.398438 242.015625 L 350.613281 242.015625 C 353.15625 242.015625 355.222656 244.078125 355.222656 246.621094 C 355.222656 249.167969 353.15625 251.230469 350.613281 251.230469 Z M 350.613281 251.230469 " fill-opacity="1" fill-rule="nonzero"/></g><path fill="#fd6f00" d="M 57.78125 272.019531 L 48.054688 272.019531 C 45.507812 272.019531 43.445312 269.957031 43.445312 267.414062 C 43.445312 264.871094 45.507812 262.804688 48.054688 262.804688 L 57.789062 262.804688 C 60.332031 262.804688 62.394531 264.871094 62.394531 267.414062 C 62.394531 269.957031 60.332031 272.019531 57.78125 272.019531 Z M 57.78125 272.019531 " fill-opacity="1" fill-rule="nonzero"/><path fill="#fd6f00" d="M 88.128906 272.019531 L 78.394531 272.019531 C 75.851562 272.019531 73.789062 269.957031 73.789062 267.414062 C 73.789062 264.871094 75.851562 262.804688 78.394531 262.804688 L 88.128906 262.804688 C 90.675781 262.804688 92.738281 264.871094 92.738281 267.414062 C 92.738281 269.957031 90.675781 272.019531 88.128906 272.019531 Z M 88.128906 272.019531 " fill-opacity="1" fill-rule="nonzero"/><path fill="#fd6f00" d="M 118.480469 272.019531 L 108.746094 272.019531 C 106.199219 272.019531 104.136719 269.957031 104.136719 267.414062 C 104.136719 264.871094 106.199219 262.804688 108.746094 262.804688 L 118.480469 262.804688 C 121.023438 262.804688 123.085938 264.871094 123.085938 267.414062 C 123.085938 269.957031 121.023438 272.019531 118.480469 272.019531 Z M 118.480469 272.019531 " fill-opacity="1" fill-rule="nonzero"/><path fill="#fd6f00" d="M 132.175781 138.992188 C 121.902344 138.992188 113.550781 130.640625 113.550781 120.367188 C 113.550781 110.097656 121.902344 101.746094 132.175781 101.746094 C 142.445312 101.746094 150.796875 110.097656 150.796875 120.367188 C 150.796875 130.640625 142.445312 138.992188 132.175781 138.992188 Z M 132.175781 110.960938 C 126.984375 110.960938 122.769531 115.183594 122.769531 120.367188 C 122.769531 125.550781 126.992188 129.777344 132.175781 129.777344 C 137.367188 129.777344 141.582031 125.550781 141.582031 120.367188 C 141.582031 115.183594 137.367188 110.960938 132.175781 110.960938 Z M 132.175781 110.960938 " fill-opacity="1" fill-rule="nonzero"/><path fill="#fd6f00" d="M 132.175781 169.910156 C 108.472656 169.910156 89.1875 150.621094 89.1875 126.921875 C 89.1875 103.21875 108.472656 83.929688 132.175781 83.929688 C 155.878906 83.929688 175.164062 103.21875 175.164062 126.921875 C 175.164062 150.621094 155.886719 169.910156 132.175781 169.910156 Z M 132.175781 93.148438 C 113.550781 93.148438 98.402344 108.296875 98.402344 126.921875 C 98.402344 145.542969 113.550781 160.695312 132.175781 160.695312 C 150.796875 160.695312 165.949219 145.542969 165.949219 126.921875 C 165.949219 108.296875 150.796875 93.148438 132.175781 93.148438 Z M 132.175781 93.148438 " fill-opacity="1" fill-rule="nonzero"/><path fill="#fd6f00" d="M 132.175781 169.910156 C 121.511719 169.910156 111.28125 165.972656 103.367188 158.828125 C 102.304688 157.871094 101.746094 156.460938 101.863281 155.039062 C 102.898438 142.359375 111.855469 131.566406 124.152344 128.183594 C 125.3125 127.863281 126.558594 128.015625 127.617188 128.601562 C 130.390625 130.144531 133.964844 130.144531 136.742188 128.601562 C 137.796875 128.015625 139.039062 127.863281 140.207031 128.183594 C 152.5 131.566406 161.453125 142.359375 162.492188 155.039062 C 162.613281 156.46875 162.050781 157.871094 160.988281 158.828125 C 153.078125 165.972656 142.847656 169.910156 132.175781 169.910156 Z M 111.359375 153.519531 C 117.289062 158.164062 124.589844 160.695312 132.175781 160.695312 C 139.757812 160.695312 147.0625 158.15625 152.988281 153.519531 C 151.582031 146.214844 146.367188 140.109375 139.328125 137.566406 C 134.816406 139.4375 129.535156 139.4375 125.023438 137.566406 C 117.984375 140.109375 112.777344 146.214844 111.359375 153.519531 Z M 111.359375 153.519531 " fill-opacity="1" fill-rule="nonzero"/><path fill="#fd6f00" d="M 303.3125 129.113281 L 170.476562 129.113281 C 167.933594 129.113281 165.867188 127.046875 165.867188 124.503906 C 165.867188 121.960938 167.933594 119.898438 170.476562 119.898438 L 303.3125 119.898438 C 305.859375 119.898438 307.921875 121.960938 307.921875 124.503906 C 307.921875 127.046875 305.867188 129.113281 303.3125 129.113281 Z M 93.875 129.113281 L 71.691406 129.113281 C 69.148438 129.113281 67.082031 127.046875 67.082031 124.503906 C 67.082031 121.960938 69.148438 119.898438 71.691406 119.898438 L 93.875 119.898438 C 96.417969 119.898438 98.480469 121.960938 98.480469 124.503906 C 98.480469 127.046875 96.425781 129.113281 93.875 129.113281 Z M 93.875 129.113281 " fill-opacity="1" fill-rule="nonzero"/><path fill="#fd6f00" d="M 169.613281 187.097656 L 94.738281 187.097656 C 92.195312 187.097656 90.128906 185.035156 90.128906 182.492188 C 90.128906 179.949219 92.195312 177.882812 94.738281 177.882812 L 169.613281 177.882812 C 172.15625 177.882812 174.21875 179.949219 174.21875 182.492188 C 174.21875 185.035156 172.164062 187.097656 169.613281 187.097656 Z M 169.613281 187.097656 " fill-opacity="1" fill-rule="nonzero"/><path fill="#fd6f00" d="M 169.613281 207.730469 L 94.738281 207.730469 C 92.195312 207.730469 90.128906 205.667969 90.128906 203.121094 C 90.128906 200.578125 92.195312 198.515625 94.738281 198.515625 L 169.613281 198.515625 C 172.15625 198.515625 174.21875 200.578125 174.21875 203.121094 C 174.21875 205.667969 172.164062 207.730469 169.613281 207.730469 Z M 169.613281 207.730469 " fill-opacity="1" fill-rule="nonzero"/><path fill="#fd6f00" d="M 275.226562 207.730469 L 200.929688 207.730469 C 198.386719 207.730469 196.320312 205.667969 196.320312 203.121094 L 196.320312 182.484375 C 196.320312 179.941406 198.386719 177.875 200.929688 177.875 L 275.226562 177.875 C 277.773438 177.875 279.835938 179.941406 279.835938 182.484375 L 279.835938 203.121094 C 279.835938 205.675781 277.773438 207.730469 275.226562 207.730469 Z M 205.539062 198.523438 L 270.621094 198.523438 L 270.621094 187.097656 L 205.539062 187.097656 Z M 205.539062 198.523438 " fill-opacity="1" fill-rule="nonzero"/><path fill="#fd6f00" d="M 275.515625 147.351562 L 200.640625 147.351562 C 198.097656 147.351562 196.035156 145.285156 196.035156 142.742188 C 196.035156 140.199219 198.097656 138.136719 200.640625 138.136719 L 275.515625 138.136719 C 278.058594 138.136719 280.125 140.199219 280.125 142.742188 C 280.125 145.285156 278.058594 147.351562 275.515625 147.351562 Z M 275.515625 147.351562 " fill-opacity="1" fill-rule="nonzero"/><path fill="#fd6f00" d="M 275.515625 167.980469 L 200.640625 167.980469 C 198.097656 167.980469 196.035156 165.917969 196.035156 163.375 C 196.035156 160.828125 198.097656 158.765625 200.640625 158.765625 L 275.515625 158.765625 C 278.058594 158.765625 280.125 160.828125 280.125 163.375 C 280.125 165.917969 278.058594 167.980469 275.515625 167.980469 Z M 275.515625 167.980469 " fill-opacity="1" fill-rule="nonzero"/></svg>