<svg xmlns="http://www.w3.org/2000/svg" xmlns:xlink="http://www.w3.org/1999/xlink" width="500" zoomAndPan="magnify" viewBox="0 0 375 374.999991" height="500" preserveAspectRatio="xMidYMid meet" version="1.0"><defs><clipPath id="5ed6775fed"><path d="M 13.148438 56 L 361.898438 56 L 361.898438 318 L 13.148438 318 Z M 13.148438 56 " clip-rule="nonzero"/></clipPath><clipPath id="3b89bfd01d"><path d="M 13.148438 273 L 361.898438 273 L 361.898438 289 L 13.148438 289 Z M 13.148438 273 " clip-rule="nonzero"/></clipPath></defs><g clip-path="url(#5ed6775fed)"><path fill="#fd6f00" d="M 346.878906 302.929688 L 28.121094 302.929688 L 28.121094 71.105469 L 214.023438 71.105469 C 218.023438 71.105469 221.269531 67.859375 221.269531 63.859375 C 221.269531 59.859375 218.023438 56.617188 214.023438 56.617188 L 20.875 56.617188 C 16.875 56.617188 13.632812 59.859375 13.632812 63.859375 L 13.632812 310.171875 C 13.632812 314.171875 16.875 317.417969 20.875 317.417969 L 354.125 317.417969 C 358.125 317.417969 361.367188 314.171875 361.367188 310.171875 L 361.367188 63.859375 C 361.367188 59.859375 358.125 56.617188 354.125 56.617188 C 350.125 56.617188 346.878906 59.859375 346.878906 63.859375 Z M 346.878906 302.929688 " fill-opacity="1" fill-rule="nonzero"/></g><g clip-path="url(#3b89bfd01d)"><path fill="#fd6f00" d="M 20.875 288.441406 L 354.125 288.441406 C 358.125 288.441406 361.367188 285.195312 361.367188 281.195312 C 361.367188 277.195312 358.125 273.949219 354.125 273.949219 L 20.875 273.949219 C 16.875 273.949219 13.632812 277.195312 13.632812 281.195312 C 13.632812 285.195312 16.875 288.441406 20.875 288.441406 Z M 20.875 288.441406 " fill-opacity="1" fill-rule="nonzero"/></g><path fill="#fd6f00" d="M 122.300781 360.886719 L 252.699219 360.886719 C 256.699219 360.886719 259.945312 357.640625 259.945312 353.640625 C 259.945312 349.640625 256.699219 346.394531 252.699219 346.394531 L 122.300781 346.394531 C 118.300781 346.394531 115.054688 349.640625 115.054688 353.640625 C 115.054688 357.640625 118.300781 360.886719 122.300781 360.886719 Z M 122.300781 360.886719 " fill-opacity="1" fill-rule="nonzero"/><path fill="#fd6f00" d="M 143.65625 355.941406 L 158.144531 312.476562 C 159.425781 308.664062 157.351562 304.550781 153.578125 303.304688 C 149.769531 302.023438 145.65625 304.097656 144.410156 307.871094 L 129.921875 351.339844 C 128.636719 355.148438 130.714844 359.261719 134.484375 360.507812 C 138.296875 361.789062 142.410156 359.714844 143.65625 355.941406 Z M 143.65625 355.941406 " fill-opacity="1" fill-rule="nonzero"/><path fill="#fd6f00" d="M 231.34375 355.941406 L 216.855469 312.476562 C 215.570312 308.664062 217.648438 304.550781 221.421875 303.304688 C 225.230469 302.023438 229.34375 304.097656 230.589844 307.871094 L 245.078125 351.339844 C 246.363281 355.148438 244.285156 359.261719 240.511719 360.507812 C 236.703125 361.789062 232.589844 359.714844 231.34375 355.941406 Z M 231.34375 355.941406 " fill-opacity="1" fill-rule="nonzero"/><path fill="#fd6f00" d="M 323.410156 78.160156 L 175.160156 208.335938 C 173.765625 209.542969 167.164062 200.222656 159.804688 192.976562 C 151.804688 185.09375 143.125 179.128906 144.449219 177.621094 L 274.621094 29.371094 C 288.054688 14.242188 310.65625 13.5625 324.917969 27.863281 C 339.257812 42.164062 338.539062 64.726562 323.410156 78.160156 Z M 314.695312 38.089844 C 306.28125 29.710938 293.375 30.089844 285.488281 38.957031 L 159.804688 182.074219 L 170.707031 192.976562 L 313.789062 67.332031 C 322.691406 59.40625 323.109375 46.503906 314.695312 38.089844 Z M 314.695312 38.089844 " fill-opacity="1" fill-rule="nonzero"/><path fill="#fd6f00" d="M 82.265625 243.578125 C 77.925781 240.066406 79.019531 233.164062 84.226562 231.164062 C 93.546875 227.617188 98.414062 221.011719 104.980469 205.84375 C 110.867188 192.261719 112.488281 189.09375 117.09375 184.449219 C 131.242188 170.300781 154.183594 170.300781 168.332031 184.449219 C 182.480469 198.601562 182.480469 221.542969 168.332031 235.691406 C 149.277344 254.707031 107.09375 263.5 82.265625 243.578125 Z M 158.070312 225.429688 C 166.558594 216.9375 166.558594 203.203125 158.070312 194.714844 C 149.578125 186.222656 135.84375 186.222656 127.355469 194.714844 C 124.636719 197.429688 123.203125 200.183594 118.300781 211.582031 C 112.980469 223.878906 108.1875 232.070312 101.433594 237.765625 C 120.222656 244.371094 146.109375 237.425781 158.070312 225.429688 Z M 158.070312 225.429688 " fill-opacity="1" fill-rule="nonzero"/><path fill="#fd6f00" d="M 174.59375 157.246094 L 195.5 178.035156 C 198.328125 180.867188 202.894531 180.867188 205.722656 178.035156 C 208.554688 175.207031 208.554688 170.601562 205.722656 167.773438 L 184.820312 146.984375 C 181.992188 144.152344 177.386719 144.191406 174.558594 147.019531 C 171.726562 149.851562 171.765625 154.417969 174.59375 157.246094 Z M 174.59375 157.246094 " fill-opacity="1" fill-rule="nonzero"/></svg>