<svg xmlns="http://www.w3.org/2000/svg" xmlns:xlink="http://www.w3.org/1999/xlink" width="500" zoomAndPan="magnify" viewBox="0 0 375 374.999991" height="500" preserveAspectRatio="xMidYMid meet" version="1.0"><defs><clipPath id="dfc670494f"><path d="M 187 125 L 310.625 125 L 310.625 249 L 187 249 Z M 187 125 " clip-rule="nonzero"/></clipPath><clipPath id="56bc3b8055"><path d="M 64.625 248 L 188 248 L 188 371.519531 L 64.625 371.519531 Z M 64.625 248 " clip-rule="nonzero"/></clipPath><clipPath id="7bfc722e84"><path d="M 187 3.1875 L 310.625 3.1875 L 310.625 126 L 187 126 Z M 187 3.1875 " clip-rule="nonzero"/></clipPath><clipPath id="511ea43908"><path d="M 64.625 3.1875 L 188 3.1875 L 188 126 L 64.625 126 Z M 64.625 3.1875 " clip-rule="nonzero"/></clipPath><clipPath id="1f36534cc6"><path d="M 64.625 125 L 188 125 L 188 249 L 64.625 249 Z M 64.625 125 " clip-rule="nonzero"/></clipPath></defs><g clip-path="url(#dfc670494f)"><path fill="#1abcfe" d="M 187.625 187.355469 C 187.625 171.074219 194.105469 155.457031 205.640625 143.945312 C 217.171875 132.433594 232.816406 125.964844 249.125 125.964844 C 265.4375 125.964844 281.082031 132.433594 292.613281 143.945312 C 304.148438 155.457031 310.625 171.074219 310.625 187.355469 C 310.625 203.636719 304.148438 219.25 292.613281 230.761719 C 281.082031 242.277344 265.4375 248.742188 249.125 248.742188 C 232.816406 248.742188 217.171875 242.277344 205.640625 230.761719 C 194.105469 219.25 187.625 203.636719 187.625 187.355469 Z M 187.625 187.355469 " fill-opacity="1" fill-rule="nonzero"/></g><g clip-path="url(#56bc3b8055)"><path fill="#0acf83" d="M 64.625 310.132812 C 64.625 293.851562 71.105469 278.234375 82.640625 266.722656 C 94.171875 255.210938 109.816406 248.742188 126.125 248.742188 L 187.625 248.742188 L 187.625 310.132812 C 187.625 326.414062 181.148438 342.027344 169.613281 353.539062 C 158.082031 365.054688 142.4375 371.519531 126.125 371.519531 C 109.816406 371.519531 94.171875 365.054688 82.640625 353.539062 C 71.105469 342.027344 64.625 326.414062 64.625 310.132812 Z M 64.625 310.132812 " fill-opacity="1" fill-rule="nonzero"/></g><g clip-path="url(#7bfc722e84)"><path fill="#ff7262" d="M 187.625 3.1875 L 187.625 125.964844 L 249.125 125.964844 C 265.4375 125.964844 281.082031 119.496094 292.613281 107.984375 C 304.148438 96.472656 310.625 80.859375 310.625 64.578125 C 310.625 48.296875 304.148438 32.679688 292.613281 21.167969 C 281.082031 9.65625 265.4375 3.1875 249.125 3.1875 Z M 187.625 3.1875 " fill-opacity="1" fill-rule="nonzero"/></g><g clip-path="url(#511ea43908)"><path fill="#f24e1e" d="M 64.625 64.578125 C 64.625 80.859375 71.105469 96.472656 82.640625 107.984375 C 94.171875 119.496094 109.816406 125.964844 126.125 125.964844 L 187.625 125.964844 L 187.625 3.1875 L 126.125 3.1875 C 109.816406 3.1875 94.171875 9.65625 82.640625 21.167969 C 71.105469 32.679688 64.625 48.296875 64.625 64.578125 Z M 64.625 64.578125 " fill-opacity="1" fill-rule="nonzero"/></g><g clip-path="url(#1f36534cc6)"><path fill="#a259ff" d="M 64.625 187.355469 C 64.625 203.636719 71.105469 219.25 82.640625 230.761719 C 94.171875 242.277344 109.816406 248.742188 126.125 248.742188 L 187.625 248.742188 L 187.625 125.964844 L 126.125 125.964844 C 109.816406 125.964844 94.171875 132.433594 82.640625 143.945312 C 71.105469 155.457031 64.625 171.074219 64.625 187.355469 Z M 64.625 187.355469 " fill-opacity="1" fill-rule="nonzero"/></g></svg>