<svg xmlns="http://www.w3.org/2000/svg" xmlns:xlink="http://www.w3.org/1999/xlink" width="500" zoomAndPan="magnify" viewBox="0 0 375 374.999991" height="500" preserveAspectRatio="xMidYMid meet" version="1.0"><defs><clipPath id="253e0f91bf"><path d="M 31.214844 10 L 343.964844 10 L 343.964844 366 L 31.214844 366 Z M 31.214844 10 " clip-rule="nonzero"/></clipPath></defs><g clip-path="url(#253e0f91bf)"><path fill="#e44d26" d="M 59.605469 329.695312 L 31.128906 10.167969 L 344.054688 10.167969 L 315.550781 329.652344 L 187.390625 365.175781 Z M 59.605469 329.695312 " fill-opacity="1" fill-rule="nonzero"/></g><path fill="#f16529" d="M 291.140625 309.304688 L 315.507812 36.296875 L 187.589844 36.296875 L 187.589844 338.027344 Z M 291.140625 309.304688 " fill-opacity="1" fill-rule="nonzero"/><path fill="#ebebeb" d="M 187.457031 75.480469 L 89.351562 75.480469 L 99.921875 193.992188 L 187.589844 193.992188 L 187.589844 154.804688 L 135.753906 154.804688 L 132.171875 114.679688 L 187.589844 114.679688 L 187.589844 75.480469 Z M 187.589844 256.453125 L 187.425781 256.496094 L 143.792969 244.714844 L 141.023438 213.460938 L 101.671875 213.460938 L 107.164062 274.992188 L 187.414062 297.179688 L 187.589844 297.125 Z M 187.589844 256.453125 " fill-opacity="1" fill-rule="nonzero"/><path fill="#ffffff" d="M 187.457031 193.992188 L 235.699219 193.992188 L 231.265625 244.804688 L 187.570312 256.597656 L 187.570312 297.367188 L 267.886719 275.101562 L 278.644531 154.785156 L 187.589844 154.785156 Z M 284.652344 86 L 285.585938 75.480469 L 187.4375 75.480469 L 187.4375 114.667969 L 282.058594 114.667969 L 282.835938 105.859375 Z M 284.652344 86 " fill-opacity="1" fill-rule="nonzero"/></svg>