<svg xmlns="http://www.w3.org/2000/svg" xmlns:xlink="http://www.w3.org/1999/xlink" width="500" zoomAndPan="magnify" viewBox="0 0 375 374.999991" height="500" preserveAspectRatio="xMidYMid meet" version="1.0"><defs><clipPath id="a195a7d165"><path d="M 13 12.488281 L 362.738281 12.488281 L 362.738281 362 L 13 362 Z M 13 12.488281 " clip-rule="nonzero"/></clipPath><clipPath id="0888c6a282"><path d="M 13 12.488281 L 189 12.488281 L 189 362 L 13 362 Z M 13 12.488281 " clip-rule="nonzero"/></clipPath></defs><g clip-path="url(#a195a7d165)"><path fill="#ffc44d" d="M 25.523438 11.675781 C 22.015625 11.675781 18.679688 13.179688 16.363281 15.804688 C 14.042969 18.433594 12.964844 21.929688 13.398438 25.40625 L 45.980469 286.058594 C 46.484375 290.113281 48.984375 293.644531 52.640625 295.472656 L 182.964844 360.632812 C 186.402344 362.355469 190.453125 362.355469 193.890625 360.632812 L 324.21875 295.472656 C 327.871094 293.644531 330.371094 290.113281 330.878906 286.058594 L 363.460938 25.40625 C 363.894531 21.929688 362.8125 18.433594 360.496094 15.804688 C 358.175781 13.179688 354.839844 11.675781 351.335938 11.675781 Z M 25.523438 11.675781 " fill-opacity="1" fill-rule="nonzero"/></g><g clip-path="url(#0888c6a282)"><path fill="#e5b045" d="M 188.429688 11.675781 L 188.429688 361.925781 C 186.558594 361.925781 184.683594 361.496094 182.964844 360.632812 L 52.640625 295.472656 C 48.984375 293.644531 46.484375 290.113281 45.980469 286.058594 L 13.398438 25.40625 C 12.964844 21.929688 14.042969 18.433594 16.363281 15.804688 C 18.679688 13.179688 22.015625 11.675781 25.523438 11.675781 Z M 188.429688 11.675781 " fill-opacity="1" fill-rule="evenodd"/></g><path fill="#cfd8dc" d="M 163.992188 60.546875 C 170.742188 60.546875 176.210938 66.015625 176.210938 72.765625 L 176.210938 284.542969 C 176.210938 288.898438 173.894531 292.925781 170.125 295.113281 C 166.359375 297.296875 161.714844 297.3125 157.933594 295.152344 L 100.914062 262.570312 C 95.054688 259.222656 93.019531 251.757812 96.367188 245.902344 C 99.71875 240.042969 107.179688 238.007812 113.039062 241.355469 L 151.777344 263.488281 L 151.777344 72.765625 C 151.777344 66.015625 157.246094 60.546875 163.992188 60.546875 Z M 163.992188 60.546875 " fill-opacity="1" fill-rule="evenodd"/><path fill="#eceff1" d="M 200.648438 72.765625 C 200.648438 66.015625 206.121094 60.546875 212.867188 60.546875 L 294.320312 60.546875 C 301.070312 60.546875 306.539062 66.015625 306.539062 72.765625 C 306.539062 79.511719 301.070312 84.984375 294.320312 84.984375 L 225.085938 84.984375 L 225.085938 163.421875 L 283.527344 150.4375 C 287.332031 149.589844 291.316406 150.613281 294.246094 153.1875 C 297.175781 155.765625 298.695312 159.585938 298.34375 163.46875 L 290.199219 253.066406 C 289.816406 257.28125 287.277344 261 283.496094 262.890625 L 218.332031 295.472656 C 212.296875 298.488281 204.957031 296.042969 201.9375 290.007812 C 198.921875 283.972656 201.367188 276.632812 207.402344 273.617188 L 266.480469 244.078125 L 272.492188 177.917969 L 215.519531 190.582031 C 211.898438 191.386719 208.113281 190.503906 205.222656 188.183594 C 202.332031 185.867188 200.648438 182.359375 200.648438 178.652344 Z M 200.648438 72.765625 " fill-opacity="1" fill-rule="evenodd"/></svg>