<svg xmlns="http://www.w3.org/2000/svg" xmlns:xlink="http://www.w3.org/1999/xlink" width="500" zoomAndPan="magnify" viewBox="0 0 375 374.999991" height="500" preserveAspectRatio="xMidYMid meet" version="1.0"><defs><clipPath id="d476c65986"><path d="M 6.285156 28 L 368.535156 28 L 368.535156 346 L 6.285156 346 Z M 6.285156 28 " clip-rule="nonzero"/></clipPath></defs><path fill="#53c1de" d="M 219.816406 186.816406 C 219.816406 187.878906 219.765625 188.9375 219.660156 189.996094 C 219.558594 191.054688 219.402344 192.101562 219.195312 193.144531 C 218.988281 194.1875 218.730469 195.214844 218.421875 196.234375 C 218.113281 197.25 217.757812 198.25 217.351562 199.230469 C 216.945312 200.210938 216.492188 201.171875 215.992188 202.109375 C 215.488281 203.046875 214.945312 203.957031 214.355469 204.839844 C 213.765625 205.722656 213.132812 206.574219 212.460938 207.394531 C 211.789062 208.21875 211.074219 209.003906 210.324219 209.753906 C 209.574219 210.507812 208.789062 211.21875 207.96875 211.890625 C 207.148438 212.566406 206.296875 213.199219 205.414062 213.789062 C 204.53125 214.378906 203.621094 214.925781 202.6875 215.425781 C 201.75 215.925781 200.792969 216.378906 199.8125 216.785156 C 198.832031 217.191406 197.832031 217.550781 196.816406 217.859375 C 195.800781 218.167969 194.773438 218.425781 193.734375 218.632812 C 192.691406 218.839844 191.644531 218.996094 190.585938 219.101562 C 189.53125 219.203125 188.472656 219.257812 187.410156 219.257812 C 186.347656 219.257812 185.289062 219.203125 184.234375 219.101562 C 183.179688 218.996094 182.128906 218.839844 181.089844 218.632812 C 180.046875 218.425781 179.019531 218.167969 178.003906 217.859375 C 176.988281 217.550781 175.988281 217.191406 175.007812 216.785156 C 174.027344 216.378906 173.070312 215.925781 172.132812 215.425781 C 171.199219 214.925781 170.289062 214.378906 169.40625 213.789062 C 168.523438 213.199219 167.671875 212.566406 166.851562 211.890625 C 166.03125 211.21875 165.246094 210.507812 164.496094 209.753906 C 163.746094 209.003906 163.035156 208.21875 162.359375 207.394531 C 161.6875 206.574219 161.054688 205.722656 160.464844 204.839844 C 159.875 203.957031 159.332031 203.046875 158.832031 202.109375 C 158.332031 201.171875 157.878906 200.210938 157.472656 199.230469 C 157.066406 198.25 156.707031 197.25 156.398438 196.234375 C 156.089844 195.214844 155.832031 194.1875 155.625 193.144531 C 155.417969 192.101562 155.265625 191.054688 155.160156 189.996094 C 155.054688 188.9375 155.003906 187.878906 155.003906 186.816406 C 155.003906 185.753906 155.054688 184.695312 155.160156 183.636719 C 155.265625 182.578125 155.417969 181.53125 155.625 180.488281 C 155.832031 179.445312 156.089844 178.417969 156.398438 177.398438 C 156.707031 176.382812 157.066406 175.382812 157.472656 174.402344 C 157.878906 173.421875 158.332031 172.460938 158.832031 171.523438 C 159.332031 170.589844 159.875 169.679688 160.464844 168.792969 C 161.054688 167.910156 161.6875 167.058594 162.359375 166.238281 C 163.035156 165.417969 163.746094 164.628906 164.496094 163.878906 C 165.246094 163.128906 166.03125 162.414062 166.851562 161.742188 C 167.671875 161.066406 168.523438 160.433594 169.40625 159.84375 C 170.289062 159.253906 171.199219 158.707031 172.132812 158.207031 C 173.070312 157.707031 174.027344 157.253906 175.007812 156.847656 C 175.988281 156.441406 176.988281 156.082031 178.003906 155.773438 C 179.019531 155.464844 180.046875 155.207031 181.089844 155 C 182.128906 154.792969 183.179688 154.636719 184.234375 154.535156 C 185.289062 154.429688 186.347656 154.378906 187.410156 154.378906 C 188.472656 154.378906 189.53125 154.429688 190.585938 154.535156 C 191.644531 154.636719 192.691406 154.792969 193.734375 155 C 194.773438 155.207031 195.800781 155.464844 196.816406 155.773438 C 197.832031 156.082031 198.832031 156.441406 199.8125 156.847656 C 200.792969 157.253906 201.75 157.707031 202.6875 158.207031 C 203.621094 158.707031 204.53125 159.253906 205.414062 159.84375 C 206.296875 160.433594 207.148438 161.066406 207.96875 161.742188 C 208.789062 162.414062 209.574219 163.128906 210.324219 163.878906 C 211.074219 164.628906 211.789062 165.417969 212.460938 166.238281 C 213.132812 167.058594 213.765625 167.910156 214.355469 168.792969 C 214.945312 169.679688 215.488281 170.589844 215.992188 171.523438 C 216.492188 172.460938 216.945312 173.421875 217.351562 174.402344 C 217.757812 175.382812 218.113281 176.382812 218.421875 177.398438 C 218.730469 178.417969 218.988281 179.445312 219.195312 180.488281 C 219.402344 181.53125 219.558594 182.578125 219.660156 183.636719 C 219.765625 184.695312 219.816406 185.753906 219.816406 186.816406 Z M 219.816406 186.816406 " fill-opacity="1" fill-rule="nonzero"/><g clip-path="url(#d476c65986)"><path fill="#53c1de" d="M 74.417969 244.261719 C 77.601562 245.320312 80.789062 246.390625 84.046875 247.3125 C 82.992188 251.558594 82.070312 255.746094 81.210938 260.066406 C 73.785156 299.378906 79.582031 330.535156 98.117188 341.230469 C 117.222656 352.277344 149.34375 340.945312 180.617188 313.535156 C 183.09375 311.34375 185.570312 309.078125 188.042969 306.660156 C 191.152344 309.714844 194.414062 312.613281 197.660156 315.441406 C 227.9375 341.503906 257.867188 352.050781 276.34375 341.367188 C 295.453125 330.324219 301.671875 296.824219 293.609375 256.03125 C 292.976562 252.917969 292.265625 249.730469 291.480469 246.46875 C 293.746094 245.832031 295.933594 245.121094 298.136719 244.414062 C 338.96875 230.890625 368.535156 208.996094 368.535156 186.542969 C 368.535156 165.089844 340.65625 144.269531 302.167969 131.019531 L 302.167969 131.003906 C 298.347656 129.734375 294.53125 128.527344 290.710938 127.394531 C 291.347656 124.777344 291.917969 122.148438 292.476562 119.535156 C 301.1875 77.320312 295.453125 43.417969 276.132812 32.222656 C 257.519531 21.523438 227.167969 32.644531 196.464844 59.417969 C 193.417969 62.03125 190.460938 64.796875 187.621094 67.5625 C 185.703125 65.71875 183.726562 63.875 181.75 62.105469 C 149.554688 33.488281 117.300781 21.449219 97.980469 32.71875 C 79.445312 43.492188 73.921875 75.433594 81.710938 115.351562 C 82.492188 119.324219 83.339844 123.207031 84.320312 127.179688 C 79.792969 128.449219 75.339844 129.871094 71.160156 131.367188 C 33.378906 144.464844 6.285156 165.148438 6.285156 186.542969 C 6.285156 208.648438 35.144531 230.800781 74.417969 244.261719 Z M 170.640625 301.964844 C 158.972656 312.660156 145.449219 321.152344 130.734375 326.96875 C 122.882812 330.714844 113.828125 331.078125 105.753906 327.890625 C 94.507812 321.378906 89.828125 296.371094 96.199219 262.726562 C 96.984375 258.765625 97.828125 254.792969 98.808594 250.894531 C 114.660156 254.292969 130.644531 256.636719 146.855469 257.828125 C 156.195312 271.078125 166.445312 283.757812 177.417969 295.648438 C 175.15625 297.839844 172.890625 299.96875 170.625 301.949219 Z M 260.496094 168.972656 C 257.171875 162.734375 253.777344 156.507812 250.230469 150.417969 C 246.757812 144.40625 243.152344 138.453125 239.410156 132.574219 C 250.804688 133.996094 261.703125 135.898438 271.890625 138.242188 C 268.628906 148.726562 264.8125 158.925781 260.496094 168.972656 Z M 260.628906 204.238281 C 265.160156 214.511719 269.128906 224.921875 272.585938 235.617188 C 261.613281 238.097656 250.515625 240.015625 239.332031 241.285156 C 243.152344 235.332031 246.757812 229.242188 250.304688 223.152344 C 253.914062 216.914062 257.308594 210.613281 260.628906 204.238281 Z M 252.449219 186.621094 C 247.710938 196.394531 242.609375 206.019531 237.175781 215.507812 C 231.800781 224.921875 226.066406 234.0625 220.058594 243.128906 C 209.523438 243.914062 198.550781 244.261719 187.441406 244.261719 C 176.332031 244.261719 165.585938 243.914062 155.183594 243.265625 C 149.027344 234.273438 143.230469 225.058594 137.78125 215.644531 C 132.332031 206.230469 127.308594 196.667969 122.566406 186.890625 L 122.539062 186.890625 C 127.203125 177.117188 132.304688 167.550781 137.675781 158.140625 C 143.050781 148.726562 148.859375 139.585938 154.945312 130.597656 C 165.554688 129.808594 176.378906 129.386719 187.425781 129.386719 C 198.472656 129.386719 209.355469 129.808594 219.90625 130.597656 C 225.914062 139.523438 231.648438 148.652344 237.097656 158.003906 C 242.546875 167.355469 247.632812 176.921875 252.449219 186.621094 Z M 124.5 150.554688 C 121.027344 156.570312 117.632812 162.71875 114.449219 168.957031 C 109.996094 158.410156 106.238281 148.078125 103.128906 138.089844 C 113.316406 135.824219 124.136719 133.980469 135.382812 132.558594 C 131.652344 138.4375 127.972656 144.449219 124.5 150.554688 Z M 114.460938 204.796875 C 117.722656 211.035156 121.042969 217.199219 124.574219 223.289062 C 128.183594 229.453125 131.867188 235.617188 135.757812 241.632812 C 124.726562 240.421875 113.753906 238.65625 102.929688 236.3125 C 106.039062 226.117188 109.933594 215.570312 114.460938 204.796875 Z M 187.984375 284.738281 C 180.769531 276.957031 173.554688 268.332031 166.550781 259.039062 C 173.34375 259.324219 180.347656 259.460938 187.425781 259.460938 C 194.714844 259.460938 201.855469 259.324219 208.933594 258.960938 C 202.429688 267.953125 195.425781 276.535156 187.984375 284.738281 Z M 280.464844 306.011719 C 279.816406 314.640625 275.574219 322.707031 268.78125 328.160156 C 257.535156 334.675781 233.550781 326.183594 207.652344 303.941406 C 204.679688 301.390625 201.703125 298.625 198.671875 295.796875 C 209.492188 283.832031 219.46875 271.15625 228.527344 257.84375 C 244.722656 256.5 260.855469 254.023438 276.78125 250.410156 C 277.488281 253.3125 278.125 256.210938 278.699219 259.054688 C 282.167969 274.359375 282.726562 290.285156 280.464844 306.011719 Z M 286.605469 141.988281 C 290.289062 143.046875 293.820312 144.179688 297.21875 145.3125 C 330.183594 156.644531 353.320312 173.503906 353.320312 186.394531 C 353.320312 200.277344 328.628906 218.199219 293.324219 229.878906 C 291.347656 230.511719 289.367188 231.148438 287.316406 231.722656 C 282.367188 216.28125 276.28125 201.199219 269.277344 186.53125 C 276.070312 172.085938 281.808594 157.203125 286.605469 141.988281 Z M 206.429688 70.886719 C 232.765625 47.949219 257.308594 38.960938 268.496094 45.394531 C 280.449219 52.269531 285.050781 80.027344 277.550781 116.5 C 277.050781 118.902344 276.554688 121.242188 275.921875 123.585938 C 260.207031 120.050781 244.300781 117.496094 228.300781 116.074219 C 219.105469 102.886719 209.054688 90.285156 198.15625 78.453125 C 200.917969 75.839844 203.605469 73.363281 206.429688 70.886719 Z M 187.5625 89.304688 C 194.988281 97.371094 201.992188 105.863281 208.496094 114.640625 C 194.488281 114.007812 180.40625 114.007812 166.398438 114.640625 C 173.328125 105.515625 180.484375 97.023438 187.5625 89.304688 Z M 105.480469 45.894531 C 117.375 38.960938 143.757812 48.871094 171.5625 73.515625 C 173.328125 75.070312 175.09375 76.777344 176.933594 78.46875 C 165.960938 90.285156 155.847656 102.886719 146.582031 116.0625 C 130.597656 117.480469 114.75 119.960938 99.035156 123.433594 C 98.117188 119.824219 97.347656 116.136719 96.5625 112.449219 C 89.90625 78.167969 94.296875 52.332031 105.480469 45.894531 Z M 76.125 145.734375 C 80.15625 144.316406 84.261719 143.046875 88.367188 141.835938 C 93.179688 157.203125 98.976562 172.296875 105.691406 186.878906 C 98.902344 201.683594 93.03125 216.972656 88.152344 232.550781 L 88.140625 232.566406 C 85.164062 231.722656 82.265625 230.800781 79.371094 229.800781 C 64.304688 225.058594 47.175781 217.546875 34.796875 207.710938 C 27.660156 202.757812 22.84375 195.113281 21.5 186.53125 C 21.5 173.566406 43.855469 156.992188 76.125 145.734375 Z M 76.125 145.734375 " fill-opacity="1" fill-rule="nonzero"/></g></svg>