<svg xmlns="http://www.w3.org/2000/svg" xmlns:xlink="http://www.w3.org/1999/xlink" width="500" zoomAndPan="magnify" viewBox="0 0 375 374.999991" height="500" preserveAspectRatio="xMidYMid meet" version="1.0"><defs><clipPath id="dbdc0084b7"><path d="M 24.3125 9.636719 L 350.5625 9.636719 L 350.5625 365.136719 L 24.3125 365.136719 Z M 24.3125 9.636719 " clip-rule="nonzero"/></clipPath></defs><g clip-path="url(#dbdc0084b7)"><path fill="#2196f3" d="M 348.507812 12.066406 C 347.804688 11.292969 346.972656 10.695312 346.015625 10.269531 C 345.058594 9.847656 344.054688 9.636719 343.011719 9.636719 L 31.863281 9.636719 C 31.34375 9.636719 30.832031 9.6875 30.324219 9.792969 C 29.816406 9.898438 29.324219 10.054688 28.847656 10.265625 C 28.371094 10.472656 27.921875 10.730469 27.5 11.03125 C 27.082031 11.335938 26.695312 11.679688 26.34375 12.0625 C 25.996094 12.445312 25.691406 12.863281 25.429688 13.3125 C 25.167969 13.757812 24.957031 14.230469 24.792969 14.722656 C 24.628906 15.214844 24.519531 15.722656 24.464844 16.238281 C 24.40625 16.753906 24.402344 17.269531 24.457031 17.785156 L 54.089844 314.035156 C 54.160156 314.746094 54.328125 315.433594 54.597656 316.09375 C 54.867188 316.757812 55.222656 317.367188 55.667969 317.925781 C 56.117188 318.484375 56.632812 318.96875 57.214844 319.375 C 57.800781 319.785156 58.433594 320.105469 59.113281 320.332031 L 192.460938 364.769531 C 193.234375 365.019531 194.03125 365.140625 194.84375 365.136719 C 195.742188 365.136719 196.613281 364.980469 197.453125 364.664062 L 315.984375 320.226562 C 316.632812 319.988281 317.238281 319.664062 317.796875 319.253906 C 318.355469 318.84375 318.847656 318.363281 319.269531 317.816406 C 319.695312 317.269531 320.035156 316.675781 320.292969 316.03125 C 320.550781 315.390625 320.714844 314.722656 320.785156 314.035156 L 350.417969 17.785156 C 350.519531 16.738281 350.402344 15.71875 350.070312 14.722656 C 349.738281 13.726562 349.214844 12.84375 348.507812 12.066406 Z M 348.507812 12.066406 " fill-opacity="1" fill-rule="nonzero"/></g><path fill="#fafafa" d="M 194.84375 291.074219 C 194.046875 291.074219 193.265625 290.953125 192.503906 290.707031 L 125.832031 268.488281 C 125.210938 268.28125 124.632812 268 124.089844 267.640625 C 123.542969 267.28125 123.058594 266.859375 122.625 266.371094 C 122.191406 265.882812 121.832031 265.347656 121.542969 264.765625 C 121.25 264.179688 121.039062 263.570312 120.910156 262.933594 L 113.503906 225.902344 C 113.40625 225.425781 113.355469 224.941406 113.351562 224.457031 C 113.351562 223.96875 113.394531 223.488281 113.488281 223.011719 C 113.582031 222.53125 113.71875 222.070312 113.902344 221.617188 C 114.085938 221.167969 114.3125 220.738281 114.582031 220.332031 C 114.847656 219.925781 115.152344 219.550781 115.496094 219.207031 C 115.839844 218.859375 116.210938 218.550781 116.613281 218.277344 C 117.019531 218.007812 117.445312 217.777344 117.894531 217.585938 C 118.339844 217.398438 118.804688 217.257812 119.28125 217.160156 C 119.757812 217.0625 120.238281 217.011719 120.726562 217.007812 C 121.210938 217.007812 121.695312 217.050781 122.171875 217.144531 C 122.652344 217.238281 123.113281 217.375 123.566406 217.558594 C 124.015625 217.742188 124.445312 217.96875 124.847656 218.238281 C 125.253906 218.507812 125.632812 218.8125 125.976562 219.15625 C 126.324219 219.496094 126.632812 219.871094 126.902344 220.273438 C 127.175781 220.675781 127.40625 221.101562 127.59375 221.550781 C 127.785156 222 127.925781 222.460938 128.023438 222.9375 L 134.585938 255.75 L 194.695312 275.820312 L 247.53125 256.015625 L 274.941406 98.511719 L 105.945312 98.511719 C 105.460938 98.511719 104.976562 98.464844 104.5 98.371094 C 104.023438 98.277344 103.5625 98.136719 103.113281 97.949219 C 102.664062 97.765625 102.234375 97.535156 101.832031 97.265625 C 101.425781 96.996094 101.050781 96.6875 100.707031 96.34375 C 100.363281 96 100.058594 95.625 99.785156 95.222656 C 99.515625 94.816406 99.289062 94.390625 99.101562 93.941406 C 98.917969 93.492188 98.777344 93.027344 98.679688 92.550781 C 98.585938 92.074219 98.539062 91.59375 98.539062 91.105469 C 98.539062 90.621094 98.585938 90.140625 98.679688 89.664062 C 98.777344 89.183594 98.917969 88.722656 99.101562 88.273438 C 99.289062 87.824219 99.515625 87.398438 99.785156 86.992188 C 100.058594 86.589844 100.363281 86.214844 100.707031 85.871094 C 101.050781 85.527344 101.425781 85.21875 101.832031 84.949219 C 102.234375 84.679688 102.664062 84.449219 103.113281 84.265625 C 103.5625 84.078125 104.023438 83.9375 104.5 83.84375 C 104.976562 83.75 105.460938 83.699219 105.945312 83.699219 L 283.742188 83.699219 C 284.285156 83.699219 284.820312 83.757812 285.347656 83.875 C 285.875 83.992188 286.382812 84.164062 286.875 84.390625 C 287.363281 84.621094 287.824219 84.898438 288.253906 85.226562 C 288.683594 85.554688 289.070312 85.925781 289.417969 86.339844 C 289.769531 86.753906 290.066406 87.199219 290.316406 87.679688 C 290.566406 88.15625 290.761719 88.65625 290.902344 89.179688 C 291.042969 89.703125 291.128906 90.234375 291.152344 90.773438 C 291.175781 91.3125 291.140625 91.847656 291.046875 92.382812 L 261.414062 262.726562 C 261.304688 263.359375 261.113281 263.96875 260.84375 264.554688 C 260.574219 265.140625 260.230469 265.683594 259.820312 266.179688 C 259.40625 266.675781 258.9375 267.109375 258.414062 267.484375 C 257.886719 267.855469 257.324219 268.15625 256.71875 268.382812 L 197.453125 290.601562 C 196.613281 290.917969 195.742188 291.074219 194.84375 291.074219 Z M 194.84375 291.074219 " fill-opacity="1" fill-rule="nonzero"/><path fill="#fafafa" d="M 268.925781 172.574219 L 113.355469 172.574219 C 112.867188 172.574219 112.386719 172.527344 111.910156 172.433594 C 111.433594 172.339844 110.96875 172.199219 110.519531 172.011719 C 110.070312 171.828125 109.644531 171.597656 109.238281 171.328125 C 108.835938 171.058594 108.460938 170.75 108.117188 170.40625 C 107.773438 170.0625 107.464844 169.6875 107.195312 169.285156 C 106.925781 168.878906 106.695312 168.453125 106.511719 168.003906 C 106.324219 167.554688 106.183594 167.089844 106.089844 166.613281 C 105.992188 166.136719 105.945312 165.65625 105.945312 165.167969 C 105.945312 164.683594 105.992188 164.203125 106.089844 163.726562 C 106.183594 163.246094 106.324219 162.785156 106.511719 162.335938 C 106.695312 161.886719 106.925781 161.460938 107.195312 161.054688 C 107.464844 160.652344 107.773438 160.277344 108.117188 159.933594 C 108.460938 159.589844 108.835938 159.28125 109.238281 159.011719 C 109.644531 158.742188 110.070312 158.511719 110.519531 158.328125 C 110.96875 158.140625 111.433594 158 111.910156 157.90625 C 112.386719 157.8125 112.867188 157.761719 113.355469 157.761719 L 268.925781 157.761719 C 269.414062 157.761719 269.894531 157.8125 270.371094 157.90625 C 270.851562 158 271.3125 158.140625 271.761719 158.328125 C 272.210938 158.511719 272.640625 158.742188 273.042969 159.011719 C 273.449219 159.28125 273.820312 159.589844 274.167969 159.933594 C 274.511719 160.277344 274.816406 160.652344 275.085938 161.054688 C 275.359375 161.460938 275.585938 161.886719 275.773438 162.335938 C 275.957031 162.785156 276.097656 163.246094 276.195312 163.726562 C 276.289062 164.203125 276.335938 164.683594 276.335938 165.167969 C 276.335938 165.65625 276.289062 166.136719 276.195312 166.613281 C 276.097656 167.089844 275.957031 167.554688 275.773438 168.003906 C 275.585938 168.453125 275.359375 168.878906 275.085938 169.285156 C 274.816406 169.6875 274.511719 170.0625 274.167969 170.40625 C 273.820312 170.75 273.449219 171.058594 273.042969 171.328125 C 272.640625 171.597656 272.210938 171.828125 271.761719 172.011719 C 271.3125 172.199219 270.851562 172.339844 270.371094 172.433594 C 269.894531 172.527344 269.414062 172.574219 268.925781 172.574219 Z M 268.925781 172.574219 " fill-opacity="1" fill-rule="nonzero"/></svg>