<svg xmlns="http://www.w3.org/2000/svg" xmlns:xlink="http://www.w3.org/1999/xlink" width="500" zoomAndPan="magnify" viewBox="0 0 375 374.999991" height="500" preserveAspectRatio="xMidYMid meet" version="1.0"><defs><clipPath id="cdd4242e20"><path d="M 7.382812 7.382812 L 367.382812 7.382812 L 367.382812 367.382812 L 7.382812 367.382812 Z M 7.382812 7.382812 " clip-rule="nonzero"/></clipPath></defs><g clip-path="url(#cdd4242e20)"><path fill="#05998b" d="M 367.382812 187.382812 C 367.382812 190.328125 367.308594 193.269531 367.164062 196.214844 C 367.019531 199.15625 366.804688 202.09375 366.515625 205.023438 C 366.226562 207.957031 365.867188 210.878906 365.433594 213.792969 C 365 216.707031 364.496094 219.609375 363.921875 222.496094 C 363.347656 225.386719 362.703125 228.261719 361.988281 231.117188 C 361.269531 233.976562 360.484375 236.8125 359.628906 239.632812 C 358.777344 242.453125 357.851562 245.246094 356.859375 248.019531 C 355.867188 250.796875 354.808594 253.542969 353.679688 256.265625 C 352.550781 258.984375 351.359375 261.679688 350.097656 264.339844 C 348.839844 267.003906 347.515625 269.632812 346.128906 272.234375 C 344.738281 274.832031 343.285156 277.394531 341.773438 279.917969 C 340.257812 282.445312 338.683594 284.933594 337.046875 287.382812 C 335.410156 289.832031 333.714844 292.242188 331.957031 294.605469 C 330.203125 296.972656 328.390625 299.292969 326.523438 301.570312 C 324.65625 303.847656 322.730469 306.078125 320.753906 308.261719 C 318.773438 310.445312 316.742188 312.578125 314.660156 314.660156 C 312.578125 316.742188 310.445312 318.773438 308.261719 320.753906 C 306.078125 322.730469 303.847656 324.65625 301.570312 326.523438 C 299.292969 328.390625 296.972656 330.203125 294.605469 331.957031 C 292.242188 333.714844 289.832031 335.410156 287.382812 337.046875 C 284.933594 338.683594 282.445312 340.257812 279.917969 341.773438 C 277.394531 343.285156 274.832031 344.738281 272.234375 346.128906 C 269.632812 347.515625 267.003906 348.839844 264.339844 350.097656 C 261.679688 351.359375 258.984375 352.550781 256.265625 353.679688 C 253.542969 354.808594 250.796875 355.867188 248.023438 356.859375 C 245.246094 357.851562 242.453125 358.777344 239.632812 359.628906 C 236.8125 360.484375 233.976562 361.269531 231.117188 361.988281 C 228.261719 362.703125 225.386719 363.347656 222.496094 363.921875 C 219.609375 364.496094 216.707031 365 213.792969 365.433594 C 210.878906 365.867188 207.957031 366.226562 205.023438 366.515625 C 202.09375 366.804688 199.15625 367.019531 196.214844 367.164062 C 193.269531 367.308594 190.328125 367.382812 187.382812 367.382812 C 184.433594 367.382812 181.492188 367.308594 178.550781 367.164062 C 175.605469 367.019531 172.671875 366.804688 169.738281 366.515625 C 166.804688 366.226562 163.882812 365.867188 160.96875 365.433594 C 158.054688 365 155.15625 364.496094 152.265625 363.921875 C 149.375 363.347656 146.503906 362.703125 143.644531 361.988281 C 140.789062 361.269531 137.949219 360.484375 135.128906 359.628906 C 132.3125 358.777344 129.515625 357.851562 126.742188 356.859375 C 123.96875 355.867188 121.21875 354.808594 118.5 353.679688 C 115.777344 352.550781 113.085938 351.359375 110.421875 350.097656 C 107.757812 348.839844 105.128906 347.515625 102.53125 346.128906 C 99.933594 344.738281 97.371094 343.285156 94.84375 341.773438 C 92.316406 340.257812 89.828125 338.683594 87.378906 337.046875 C 84.929688 335.410156 82.523438 333.714844 80.15625 331.957031 C 77.789062 330.203125 75.46875 328.390625 73.191406 326.523438 C 70.914062 324.65625 68.683594 322.730469 66.5 320.753906 C 64.316406 318.773438 62.183594 316.742188 60.101562 314.660156 C 58.019531 312.578125 55.988281 310.445312 54.011719 308.261719 C 52.03125 306.078125 50.109375 303.847656 48.238281 301.570312 C 46.371094 299.292969 44.558594 296.972656 42.804688 294.605469 C 41.050781 292.242188 39.351562 289.832031 37.71875 287.382812 C 36.082031 284.933594 34.503906 282.445312 32.988281 279.917969 C 31.476562 277.394531 30.023438 274.832031 28.636719 272.234375 C 27.246094 269.632812 25.921875 267.003906 24.664062 264.339844 C 23.402344 261.679688 22.210938 258.984375 21.082031 256.265625 C 19.957031 253.542969 18.894531 250.796875 17.902344 248.019531 C 16.910156 245.246094 15.988281 242.453125 15.132812 239.632812 C 14.277344 236.8125 13.492188 233.976562 12.777344 231.117188 C 12.058594 228.261719 11.414062 225.386719 10.839844 222.496094 C 10.265625 219.609375 9.761719 216.707031 9.328125 213.792969 C 8.898438 210.878906 8.535156 207.957031 8.25 205.023438 C 7.960938 202.09375 7.742188 199.15625 7.597656 196.214844 C 7.453125 193.269531 7.382812 190.328125 7.382812 187.382812 C 7.382812 184.433594 7.453125 181.492188 7.597656 178.550781 C 7.742188 175.605469 7.960938 172.667969 8.25 169.738281 C 8.535156 166.804688 8.898438 163.882812 9.328125 160.96875 C 9.761719 158.054688 10.265625 155.152344 10.839844 152.265625 C 11.414062 149.375 12.058594 146.503906 12.777344 143.644531 C 13.492188 140.789062 14.277344 137.949219 15.132812 135.128906 C 15.988281 132.3125 16.910156 129.515625 17.902344 126.742188 C 18.894531 123.96875 19.957031 121.21875 21.082031 118.5 C 22.210938 115.777344 23.402344 113.085938 24.664062 110.421875 C 25.921875 107.757812 27.246094 105.128906 28.636719 102.53125 C 30.023438 99.933594 31.476562 97.371094 32.988281 94.84375 C 34.503906 92.316406 36.082031 89.828125 37.71875 87.378906 C 39.351562 84.929688 41.050781 82.523438 42.804688 80.15625 C 44.558594 77.789062 46.371094 75.46875 48.238281 73.191406 C 50.109375 70.914062 52.03125 68.683594 54.011719 66.5 C 55.988281 64.316406 58.019531 62.183594 60.101562 60.101562 C 62.183594 58.019531 64.316406 55.988281 66.5 54.011719 C 68.683594 52.03125 70.914062 50.109375 73.191406 48.238281 C 75.46875 46.371094 77.789062 44.558594 80.15625 42.804688 C 82.523438 41.050781 84.929688 39.351562 87.378906 37.71875 C 89.828125 36.082031 92.316406 34.503906 94.84375 32.988281 C 97.371094 31.476562 99.933594 30.023438 102.53125 28.636719 C 105.128906 27.246094 107.757812 25.921875 110.421875 24.664062 C 113.085938 23.402344 115.777344 22.210938 118.5 21.082031 C 121.21875 19.957031 123.96875 18.894531 126.742188 17.902344 C 129.515625 16.910156 132.3125 15.988281 135.128906 15.132812 C 137.949219 14.277344 140.789062 13.492188 143.644531 12.777344 C 146.503906 12.058594 149.375 11.414062 152.265625 10.839844 C 155.15625 10.265625 158.054688 9.761719 160.96875 9.328125 C 163.882812 8.898438 166.804688 8.535156 169.738281 8.25 C 172.671875 7.960938 175.605469 7.742188 178.550781 7.597656 C 181.492188 7.453125 184.433594 7.382812 187.382812 7.382812 C 190.328125 7.382812 193.269531 7.453125 196.214844 7.597656 C 199.15625 7.742188 202.09375 7.960938 205.023438 8.25 C 207.957031 8.535156 210.878906 8.898438 213.792969 9.328125 C 216.707031 9.761719 219.609375 10.265625 222.496094 10.839844 C 225.386719 11.414062 228.261719 12.058594 231.117188 12.777344 C 233.976562 13.492188 236.8125 14.277344 239.632812 15.132812 C 242.453125 15.988281 245.246094 16.910156 248.023438 17.902344 C 250.796875 18.894531 253.542969 19.957031 256.265625 21.082031 C 258.984375 22.210938 261.679688 23.402344 264.339844 24.664062 C 267.003906 25.921875 269.632812 27.246094 272.234375 28.636719 C 274.832031 30.023438 277.394531 31.476562 279.917969 32.988281 C 282.445312 34.503906 284.933594 36.082031 287.382812 37.71875 C 289.832031 39.351562 292.242188 41.050781 294.605469 42.804688 C 296.972656 44.558594 299.292969 46.371094 301.570312 48.238281 C 303.847656 50.109375 306.078125 52.03125 308.261719 54.011719 C 310.445312 55.988281 312.578125 58.019531 314.660156 60.101562 C 316.742188 62.183594 318.773438 64.316406 320.753906 66.5 C 322.730469 68.683594 324.65625 70.914062 326.523438 73.191406 C 328.390625 75.46875 330.203125 77.789062 331.957031 80.15625 C 333.714844 82.523438 335.410156 84.929688 337.046875 87.378906 C 338.683594 89.828125 340.257812 92.316406 341.773438 94.84375 C 343.285156 97.371094 344.738281 99.933594 346.128906 102.53125 C 347.515625 105.128906 348.839844 107.757812 350.097656 110.421875 C 351.359375 113.085938 352.550781 115.777344 353.679688 118.5 C 354.808594 121.21875 355.867188 123.96875 356.859375 126.742188 C 357.851562 129.515625 358.777344 132.3125 359.628906 135.128906 C 360.484375 137.949219 361.269531 140.789062 361.988281 143.644531 C 362.703125 146.503906 363.347656 149.375 363.921875 152.265625 C 364.496094 155.152344 365 158.054688 365.433594 160.96875 C 365.867188 163.882812 366.226562 166.804688 366.515625 169.738281 C 366.804688 172.667969 367.019531 175.605469 367.164062 178.550781 C 367.308594 181.492188 367.382812 184.433594 367.382812 187.382812 Z M 367.382812 187.382812 " fill-opacity="1" fill-rule="nonzero"/></g><path fill="#ffffff" d="M 197.609375 51.019531 L 107.023438 214.65625 L 188.550781 214.65625 L 179.492188 323.746094 L 270.074219 160.109375 L 188.550781 160.109375 Z M 197.609375 51.019531 " fill-opacity="1" fill-rule="nonzero"/></svg>