<svg xmlns="http://www.w3.org/2000/svg" xmlns:xlink="http://www.w3.org/1999/xlink" width="500" zoomAndPan="magnify" viewBox="0 0 375 374.999991" height="500" preserveAspectRatio="xMidYMid meet" version="1.0"><defs><clipPath id="327d720492"><path d="M 219 31 L 360.515625 31 L 360.515625 172 L 219 172 Z M 219 31 " clip-rule="nonzero"/></clipPath><clipPath id="bcb9ff525f"><path d="M 14.765625 31 L 156 31 L 156 172 L 14.765625 172 Z M 14.765625 31 " clip-rule="nonzero"/></clipPath><clipPath id="b82bc40b2c"><path d="M 14.765625 124 L 360 124 L 360 343.710938 L 14.765625 343.710938 Z M 14.765625 124 " clip-rule="nonzero"/></clipPath></defs><g clip-path="url(#327d720492)"><path fill="#fd6f00" d="M 347.828125 85.234375 L 342.707031 85.234375 C 341.628906 81.734375 340.28125 78.5 338.664062 75.265625 L 342.167969 71.761719 C 346.75 67.183594 346.480469 59.367188 341.628906 54.515625 L 336.511719 49.398438 C 331.660156 44.546875 323.84375 44.277344 319.265625 48.859375 L 315.761719 52.359375 C 312.527344 50.746094 309.292969 49.128906 305.789062 48.050781 L 305.789062 42.929688 C 305.789062 36.460938 300.132812 31.074219 293.125 31.074219 L 285.851562 31.074219 C 279.113281 31.34375 273.453125 36.730469 273.453125 43.199219 L 273.453125 48.320312 C 269.953125 49.398438 266.71875 50.746094 263.484375 52.359375 L 259.980469 48.859375 C 255.398438 44.277344 247.585938 44.546875 242.734375 49.398438 L 237.617188 54.515625 C 232.765625 59.367188 232.496094 67.183594 237.078125 71.761719 L 240.578125 75.265625 C 238.960938 78.5 237.347656 81.734375 236.269531 85.234375 L 231.148438 85.234375 C 224.949219 85.234375 219.5625 90.894531 219.5625 97.902344 L 219.5625 105.175781 C 219.5625 112.183594 224.949219 117.839844 231.417969 117.839844 L 236.539062 117.839844 C 237.617188 121.34375 238.960938 124.578125 240.578125 127.8125 L 237.078125 131.316406 C 232.496094 135.894531 232.765625 143.710938 237.617188 148.5625 L 242.734375 153.679688 C 247.585938 158.53125 255.398438 158.800781 259.980469 154.21875 L 263.484375 150.714844 C 266.71875 152.332031 269.953125 153.949219 273.453125 154.757812 L 273.453125 159.878906 C 273.453125 166.347656 279.113281 171.734375 286.121094 171.734375 L 293.394531 171.734375 C 300.402344 171.734375 306.058594 166.347656 306.058594 159.878906 L 306.058594 154.757812 C 309.5625 153.679688 312.796875 152.332031 316.03125 150.445312 L 319.535156 153.949219 C 324.113281 158.53125 331.929688 158.261719 336.78125 153.410156 L 341.898438 148.292969 C 346.75 143.441406 347.019531 135.625 342.4375 131.046875 L 338.933594 127.542969 C 340.550781 124.308594 342.167969 121.074219 343.246094 117.570312 L 348.367188 117.570312 C 354.832031 117.570312 360.222656 111.914062 360.222656 104.90625 L 360.222656 97.632812 C 359.683594 90.894531 354.292969 85.234375 347.828125 85.234375 Z M 348.90625 104.90625 C 348.90625 105.984375 348.367188 106.792969 347.828125 106.792969 L 334.355469 106.792969 L 333.546875 111.105469 C 332.46875 116.226562 330.3125 121.074219 327.617188 125.65625 L 325.191406 129.429688 L 334.625 138.859375 C 334.894531 139.128906 334.894531 139.9375 334.085938 140.746094 L 328.964844 145.867188 C 328.15625 146.675781 327.347656 146.675781 327.078125 146.40625 L 317.648438 136.972656 L 313.875 139.128906 C 309.292969 142.09375 304.445312 143.980469 299.324219 145.058594 L 295.011719 145.867188 L 295.011719 159.339844 C 295.011719 159.609375 294.203125 160.417969 293.125 160.417969 L 285.851562 160.417969 C 284.773438 160.417969 283.964844 159.878906 283.964844 159.339844 L 283.964844 145.867188 L 279.652344 145.058594 C 274.53125 143.980469 269.683594 141.824219 265.101562 139.128906 L 261.328125 136.703125 L 251.898438 146.136719 C 251.628906 146.40625 250.820312 146.40625 250.011719 145.597656 L 244.890625 140.476562 C 244.082031 139.667969 244.082031 138.859375 244.351562 138.589844 L 253.785156 129.160156 L 251.898438 125.65625 C 248.933594 121.074219 247.046875 116.226562 245.96875 111.105469 L 244.890625 106.792969 L 231.417969 106.792969 C 231.148438 106.792969 230.339844 105.984375 230.339844 104.90625 L 230.339844 97.632812 C 230.339844 96.554688 230.878906 95.746094 231.417969 95.746094 L 244.890625 95.746094 L 245.699219 91.433594 C 246.777344 86.3125 248.933594 81.464844 251.628906 76.882812 L 254.054688 73.109375 L 244.621094 63.679688 C 244.351562 63.410156 244.351562 62.601562 245.160156 61.792969 L 250.28125 56.671875 C 251.089844 55.863281 251.898438 55.863281 252.167969 56.132812 L 261.597656 65.566406 L 265.371094 63.679688 C 269.953125 60.714844 274.800781 58.828125 279.921875 57.75 L 284.234375 56.941406 L 284.234375 43.46875 C 284.234375 43.199219 285.042969 42.390625 286.121094 42.390625 L 293.394531 42.390625 C 294.472656 42.390625 295.28125 42.929688 295.28125 43.46875 L 295.28125 56.941406 L 299.59375 57.75 C 304.710938 58.828125 309.5625 60.984375 314.144531 63.679688 L 317.917969 66.105469 L 327.347656 56.671875 C 327.617188 56.402344 328.425781 56.402344 329.234375 57.210938 L 334.355469 62.332031 C 335.164062 63.140625 335.164062 63.949219 334.894531 64.21875 L 325.460938 73.648438 L 327.347656 77.152344 C 330.3125 81.734375 332.199219 86.582031 333.277344 91.703125 L 334.085938 96.015625 L 347.558594 96.015625 C 347.828125 96.015625 348.636719 96.824219 348.636719 97.902344 L 348.636719 104.90625 Z M 348.90625 104.90625 " fill-opacity="1" fill-rule="nonzero"/></g><path fill="#fd6f00" d="M 289.621094 72.839844 C 273.722656 72.839844 261.058594 85.503906 261.058594 101.402344 C 261.058594 117.300781 273.722656 129.96875 289.621094 129.96875 C 305.519531 129.96875 318.1875 117.300781 318.1875 101.402344 C 318.1875 85.503906 305.519531 72.839844 289.621094 72.839844 Z M 289.621094 119.1875 C 279.921875 119.1875 271.835938 111.105469 271.835938 101.402344 C 271.835938 91.703125 279.921875 83.621094 289.621094 83.621094 C 299.324219 83.621094 307.40625 91.703125 307.40625 101.402344 C 307.40625 111.105469 299.324219 119.1875 289.621094 119.1875 Z M 289.621094 119.1875 " fill-opacity="1" fill-rule="nonzero"/><g clip-path="url(#bcb9ff525f)"><path fill="#fd6f00" d="M 26.621094 117.570312 L 31.742188 117.570312 C 32.820312 121.074219 34.167969 124.308594 35.785156 127.542969 L 32.28125 131.046875 C 27.699219 135.625 27.96875 143.441406 32.820312 148.292969 L 37.941406 153.410156 C 42.789062 158.261719 50.605469 158.53125 55.1875 153.949219 L 58.6875 150.445312 C 61.921875 152.0625 65.15625 153.679688 68.660156 154.488281 L 68.660156 159.609375 C 68.660156 166.078125 74.316406 171.464844 81.324219 171.464844 L 88.601562 171.464844 C 95.605469 171.464844 101.265625 166.078125 101.265625 159.609375 L 101.265625 154.488281 C 104.769531 153.410156 108 152.0625 111.234375 150.179688 L 114.738281 153.679688 C 119.320312 158.261719 127.132812 157.992188 131.984375 153.140625 L 137.105469 148.023438 C 141.953125 143.171875 142.222656 135.355469 137.644531 130.777344 L 134.140625 127.273438 C 135.757812 124.039062 137.375 120.804688 138.453125 117.300781 L 143.570312 117.300781 C 150.039062 117.300781 155.429688 111.644531 155.429688 104.636719 L 155.429688 97.363281 C 155.429688 90.355469 150.039062 84.695312 143.570312 84.695312 L 138.453125 84.695312 C 137.375 81.195312 136.027344 77.960938 134.410156 74.726562 L 137.914062 71.222656 C 142.492188 66.644531 142.222656 58.828125 137.375 53.976562 L 132.253906 48.859375 C 127.402344 44.007812 119.589844 43.738281 115.007812 48.320312 L 111.503906 51.820312 C 108.269531 50.207031 105.039062 48.589844 101.535156 47.511719 L 101.535156 42.390625 C 100.996094 36.730469 95.335938 31.34375 88.332031 31.34375 L 81.054688 31.34375 C 74.316406 31.34375 68.660156 36.730469 68.660156 43.199219 L 68.660156 48.320312 C 65.15625 49.398438 61.921875 50.746094 58.6875 52.359375 L 55.1875 48.859375 C 50.605469 44.277344 42.789062 44.546875 37.941406 49.398438 L 32.820312 54.515625 C 27.96875 59.367188 27.699219 67.183594 32.28125 71.761719 L 35.785156 75.265625 C 34.167969 78.5 32.550781 81.734375 31.472656 85.234375 L 26.621094 85.234375 C 20.15625 85.234375 14.765625 90.894531 14.765625 97.902344 L 14.765625 105.175781 C 14.765625 111.914062 20.15625 117.570312 26.621094 117.570312 Z M 25.542969 97.902344 C 25.542969 96.824219 26.082031 96.015625 26.621094 96.015625 L 40.097656 96.015625 L 40.90625 91.703125 C 41.980469 86.582031 44.136719 81.734375 46.832031 77.152344 L 49.257812 73.378906 L 39.828125 63.949219 C 39.558594 63.679688 39.558594 62.871094 40.367188 62.0625 L 45.484375 56.941406 C 46.292969 56.132812 47.101562 56.132812 47.371094 56.402344 L 56.804688 65.835938 L 60.574219 63.679688 C 65.15625 60.714844 70.007812 58.828125 75.125 57.75 L 79.4375 56.941406 L 79.4375 43.46875 C 79.4375 43.199219 80.246094 42.390625 81.324219 42.390625 L 88.601562 42.390625 C 89.679688 42.390625 90.488281 42.929688 90.488281 43.46875 L 90.488281 56.941406 L 94.796875 57.75 C 99.917969 58.828125 104.769531 60.984375 109.347656 63.679688 L 113.121094 66.105469 L 122.554688 56.671875 C 122.824219 56.402344 123.632812 56.402344 124.4375 57.210938 L 129.558594 62.332031 C 130.367188 63.140625 130.367188 63.949219 130.097656 64.21875 L 120.667969 73.648438 L 122.554688 77.152344 C 125.515625 81.734375 127.402344 86.582031 128.480469 91.703125 L 129.289062 96.015625 L 142.761719 96.015625 C 143.03125 96.015625 143.839844 96.824219 143.839844 97.902344 L 143.839844 105.175781 C 143.839844 106.253906 143.300781 107.0625 142.761719 107.0625 L 129.289062 107.0625 L 128.480469 111.375 C 127.402344 116.496094 125.246094 121.34375 122.554688 125.925781 L 120.128906 129.699219 L 129.558594 139.128906 C 129.828125 139.398438 129.828125 140.207031 129.019531 141.015625 L 123.898438 146.136719 C 123.09375 146.945312 122.285156 146.945312 122.015625 146.675781 L 112.582031 137.242188 L 109.078125 139.128906 C 104.5 142.09375 99.648438 143.980469 94.527344 145.058594 L 90.21875 146.136719 L 90.21875 159.609375 C 90.21875 159.878906 89.410156 160.6875 88.332031 160.6875 L 81.054688 160.6875 C 79.976562 160.6875 79.167969 160.148438 79.167969 159.609375 L 79.167969 146.136719 L 74.855469 145.328125 C 69.738281 144.25 64.886719 142.09375 60.304688 139.398438 L 56.535156 136.972656 L 47.101562 146.40625 C 46.832031 146.675781 46.023438 146.675781 45.214844 145.867188 L 40.097656 140.746094 C 39.289062 139.9375 39.289062 139.128906 39.558594 138.859375 L 48.988281 129.429688 L 47.101562 125.65625 C 44.136719 121.074219 42.25 116.226562 41.175781 111.105469 L 40.097656 106.792969 L 26.621094 106.792969 C 26.082031 106.792969 25.542969 105.984375 25.542969 104.90625 Z M 25.542969 97.902344 " fill-opacity="1" fill-rule="nonzero"/></g><path fill="#fd6f00" d="M 84.828125 129.96875 C 100.726562 129.96875 113.390625 117.300781 113.390625 101.402344 C 113.390625 85.503906 100.457031 72.839844 84.828125 72.839844 C 68.929688 72.839844 56.265625 85.503906 56.265625 101.402344 C 56.265625 117.300781 68.929688 129.96875 84.828125 129.96875 Z M 84.828125 83.621094 C 94.527344 83.621094 102.613281 91.703125 102.613281 101.402344 C 102.613281 111.105469 94.527344 119.1875 84.828125 119.1875 C 75.125 119.1875 67.042969 111.105469 67.042969 101.402344 C 67.042969 91.703125 75.125 83.621094 84.828125 83.621094 Z M 84.828125 83.621094 " fill-opacity="1" fill-rule="nonzero"/><path fill="#fd6f00" d="M 286.929688 200.296875 C 286.929688 198.414062 285.851562 196.527344 283.964844 195.449219 L 189.648438 147.753906 C 188.035156 146.945312 186.417969 146.945312 184.800781 147.753906 L 90.488281 195.449219 C 88.601562 196.257812 87.523438 198.144531 87.523438 200.296875 C 87.523438 202.453125 88.601562 204.070312 90.488281 205.148438 L 101.804688 211.078125 L 90.21875 217.003906 C 88.601562 218.082031 87.523438 219.699219 87.523438 221.855469 C 87.523438 224.011719 88.601562 225.628906 90.488281 226.707031 L 101.804688 232.632812 L 90.21875 238.5625 C 88.601562 239.640625 87.523438 241.257812 87.523438 243.414062 C 87.523438 245.570312 88.601562 247.1875 90.488281 248.265625 L 185.070312 297.578125 C 185.878906 298.117188 186.6875 298.117188 187.496094 298.117188 C 188.304688 298.117188 189.113281 297.847656 189.917969 297.578125 L 283.964844 248.265625 C 285.582031 247.457031 286.929688 245.570312 286.929688 243.683594 C 286.929688 241.796875 285.851562 239.910156 284.234375 238.832031 L 273.183594 232.363281 L 283.964844 226.707031 C 285.582031 225.898438 286.929688 224.011719 286.929688 222.125 C 286.929688 220.238281 285.851562 218.351562 284.234375 217.273438 L 273.183594 210.808594 L 283.964844 205.148438 C 285.851562 204.070312 286.929688 202.183594 286.929688 200.296875 Z M 187.226562 158.53125 L 269.683594 200.296875 L 187.226562 243.414062 L 104.5 200.296875 Z M 187.496094 286.527344 L 104.230469 243.414062 L 113.121094 238.5625 L 184.800781 276.019531 C 185.609375 276.558594 186.417969 276.558594 187.226562 276.558594 C 188.035156 276.558594 188.84375 276.289062 189.648438 276.019531 L 261.597656 238.292969 L 270.222656 243.144531 Z M 187.496094 264.972656 L 104.230469 221.855469 L 113.121094 217.003906 L 184.800781 254.460938 C 185.609375 255 186.417969 255 187.226562 255 C 188.035156 255 188.84375 254.730469 189.648438 254.460938 L 261.597656 216.734375 L 270.222656 221.585938 Z M 187.496094 264.972656 " fill-opacity="1" fill-rule="nonzero"/><path fill="#fd6f00" d="M 321.957031 271.167969 C 321.957031 262.277344 314.683594 255 305.789062 255 C 296.898438 255 289.621094 262.277344 289.621094 271.167969 C 289.621094 280.0625 296.898438 287.335938 305.789062 287.335938 C 314.683594 287.335938 321.957031 280.0625 321.957031 271.167969 Z M 300.402344 271.167969 C 300.402344 268.203125 302.828125 265.777344 305.789062 265.777344 C 308.753906 265.777344 311.179688 268.203125 311.179688 271.167969 C 311.179688 274.132812 308.753906 276.558594 305.789062 276.558594 C 302.828125 276.558594 300.402344 274.132812 300.402344 271.167969 Z M 300.402344 271.167969 " fill-opacity="1" fill-rule="nonzero"/><path fill="#fd6f00" d="M 338.125 292.726562 C 338.125 293.078125 338.09375 293.429688 338.023438 293.777344 C 337.953125 294.125 337.851562 294.460938 337.714844 294.789062 C 337.582031 295.113281 337.414062 295.425781 337.21875 295.71875 C 337.023438 296.015625 336.796875 296.285156 336.546875 296.535156 C 336.296875 296.785156 336.027344 297.011719 335.730469 297.207031 C 335.4375 297.402344 335.125 297.570312 334.800781 297.703125 C 334.472656 297.839844 334.136719 297.941406 333.789062 298.011719 C 333.441406 298.082031 333.089844 298.117188 332.738281 298.117188 C 332.382812 298.117188 332.03125 298.082031 331.6875 298.011719 C 331.339844 297.941406 331 297.839844 330.675781 297.703125 C 330.347656 297.570312 330.039062 297.402344 329.742188 297.207031 C 329.449219 297.011719 329.175781 296.785156 328.925781 296.535156 C 328.675781 296.285156 328.453125 296.015625 328.257812 295.71875 C 328.058594 295.425781 327.894531 295.113281 327.757812 294.789062 C 327.621094 294.460938 327.519531 294.125 327.453125 293.777344 C 327.382812 293.429688 327.347656 293.078125 327.347656 292.726562 C 327.347656 292.371094 327.382812 292.023438 327.453125 291.675781 C 327.519531 291.328125 327.621094 290.992188 327.757812 290.664062 C 327.894531 290.335938 328.058594 290.027344 328.257812 289.730469 C 328.453125 289.4375 328.675781 289.164062 328.925781 288.914062 C 329.175781 288.664062 329.449219 288.441406 329.742188 288.246094 C 330.039062 288.046875 330.347656 287.882812 330.675781 287.746094 C 331 287.613281 331.339844 287.507812 331.6875 287.441406 C 332.03125 287.371094 332.382812 287.335938 332.738281 287.335938 C 333.089844 287.335938 333.441406 287.371094 333.789062 287.441406 C 334.136719 287.507812 334.472656 287.613281 334.800781 287.746094 C 335.125 287.882812 335.4375 288.046875 335.730469 288.246094 C 336.027344 288.441406 336.296875 288.664062 336.546875 288.914062 C 336.796875 289.164062 337.023438 289.4375 337.21875 289.730469 C 337.414062 290.027344 337.582031 290.335938 337.714844 290.664062 C 337.851562 290.992188 337.953125 291.328125 338.023438 291.675781 C 338.09375 292.023438 338.125 292.371094 338.125 292.726562 Z M 338.125 292.726562 " fill-opacity="1" fill-rule="nonzero"/><path fill="#fd6f00" d="M 68.660156 255 C 59.765625 255 52.492188 262.277344 52.492188 271.167969 C 52.492188 280.0625 59.765625 287.335938 68.660156 287.335938 C 77.550781 287.335938 84.828125 280.0625 84.828125 271.167969 C 84.828125 262.277344 77.550781 255 68.660156 255 Z M 68.660156 276.558594 C 65.695312 276.558594 63.269531 274.132812 63.269531 271.167969 C 63.269531 268.203125 65.695312 265.777344 68.660156 265.777344 C 71.625 265.777344 74.050781 268.203125 74.050781 271.167969 C 74.050781 274.132812 71.625 276.558594 68.660156 276.558594 Z M 68.660156 276.558594 " fill-opacity="1" fill-rule="nonzero"/><path fill="#fd6f00" d="M 47.101562 292.726562 C 47.101562 293.078125 47.066406 293.429688 47 293.777344 C 46.929688 294.125 46.828125 294.460938 46.691406 294.789062 C 46.554688 295.113281 46.390625 295.425781 46.195312 295.71875 C 45.996094 296.015625 45.773438 296.285156 45.523438 296.535156 C 45.273438 296.785156 45 297.011719 44.707031 297.207031 C 44.414062 297.402344 44.101562 297.570312 43.773438 297.703125 C 43.449219 297.839844 43.109375 297.941406 42.765625 298.011719 C 42.417969 298.082031 42.066406 298.117188 41.710938 298.117188 C 41.359375 298.117188 41.007812 298.082031 40.660156 298.011719 C 40.3125 297.941406 39.976562 297.839844 39.652344 297.703125 C 39.324219 297.570312 39.011719 297.402344 38.71875 297.207031 C 38.425781 297.011719 38.152344 296.785156 37.902344 296.535156 C 37.652344 296.285156 37.429688 296.015625 37.230469 295.71875 C 37.035156 295.425781 36.867188 295.113281 36.734375 294.789062 C 36.597656 294.460938 36.496094 294.125 36.425781 293.777344 C 36.359375 293.429688 36.324219 293.078125 36.324219 292.726562 C 36.324219 292.371094 36.359375 292.023438 36.425781 291.675781 C 36.496094 291.328125 36.597656 290.992188 36.734375 290.664062 C 36.867188 290.335938 37.035156 290.027344 37.230469 289.730469 C 37.429688 289.4375 37.652344 289.164062 37.902344 288.914062 C 38.152344 288.664062 38.425781 288.441406 38.71875 288.246094 C 39.011719 288.046875 39.324219 287.882812 39.652344 287.746094 C 39.976562 287.613281 40.3125 287.507812 40.660156 287.441406 C 41.007812 287.371094 41.359375 287.335938 41.710938 287.335938 C 42.066406 287.335938 42.417969 287.371094 42.765625 287.441406 C 43.109375 287.507812 43.449219 287.613281 43.773438 287.746094 C 44.101562 287.882812 44.414062 288.046875 44.707031 288.246094 C 45 288.441406 45.273438 288.664062 45.523438 288.914062 C 45.773438 289.164062 45.996094 289.4375 46.195312 289.730469 C 46.390625 290.027344 46.554688 290.335938 46.691406 290.664062 C 46.828125 290.992188 46.929688 291.328125 47 291.675781 C 47.066406 292.023438 47.101562 292.371094 47.101562 292.726562 Z M 47.101562 292.726562 " fill-opacity="1" fill-rule="nonzero"/><path fill="#fd6f00" d="M 208.78125 106.792969 L 165.667969 106.792969 C 165.398438 110.835938 164.050781 114.339844 162.164062 117.570312 L 212.554688 117.570312 C 210.398438 114.339844 209.050781 110.835938 208.78125 106.792969 Z M 208.78125 106.792969 " fill-opacity="1" fill-rule="nonzero"/><g clip-path="url(#b82bc40b2c)"><path fill="#fd6f00" d="M 349.445312 156.105469 L 348.90625 156.644531 L 348.90625 306.199219 C 348.90625 309.164062 346.480469 311.589844 343.515625 311.589844 L 30.933594 311.589844 C 27.96875 311.589844 25.542969 309.164062 25.542969 306.199219 L 25.542969 156.375 L 25.003906 155.835938 C 17.460938 148.292969 16.113281 136.433594 21.234375 127.8125 C 18.808594 127.273438 16.652344 126.195312 14.765625 125.117188 L 14.765625 306.199219 C 14.765625 315.089844 22.042969 322.367188 30.933594 322.367188 L 165.667969 322.367188 L 165.667969 333.144531 L 141.414062 333.144531 C 138.453125 333.144531 136.027344 335.570312 136.027344 338.535156 C 136.027344 341.5 138.453125 343.925781 141.414062 343.925781 L 233.035156 343.925781 C 236 343.925781 238.425781 341.5 238.425781 338.535156 C 238.425781 335.570312 236 333.144531 233.035156 333.144531 L 208.78125 333.144531 L 208.78125 322.367188 L 343.515625 322.367188 C 352.410156 322.367188 359.683594 315.089844 359.683594 306.199219 L 359.683594 124.847656 C 357.796875 126.195312 355.371094 127.003906 353.21875 127.542969 C 358.335938 136.433594 356.988281 148.292969 349.445312 156.105469 Z M 198.003906 333.144531 L 176.445312 333.144531 L 176.445312 322.367188 L 198.003906 322.367188 Z M 198.003906 333.144531 " fill-opacity="1" fill-rule="nonzero"/></g></svg>