<svg xmlns="http://www.w3.org/2000/svg" xmlns:xlink="http://www.w3.org/1999/xlink" width="500" zoomAndPan="magnify" viewBox="0 0 375 149.999998" height="200" preserveAspectRatio="xMidYMid meet" version="1.0"><defs><g/></defs><g fill="#0057e1" fill-opacity="1"><g transform="translate(36.349963, 97.548075)"><g><path d="M 10.328125 0 L 10.328125 -82.078125 L 27.734375 -82.078125 L 27.734375 -14.375 L 61.03125 -14.375 L 61.03125 0 Z M 10.328125 0 "/></g></g></g><g fill="#0057e1" fill-opacity="1"><g transform="translate(101.309122, 97.548075)"><g><path d="M 48.84375 0 L 45.53125 -8.53125 L 45.078125 -8.53125 C 42.203125 -4.90625 39.238281 -2.390625 36.1875 -0.984375 C 33.132812 0.421875 29.15625 1.125 24.25 1.125 C 18.226562 1.125 13.484375 -0.59375 10.015625 -4.03125 C 6.554688 -7.476562 4.828125 -12.382812 4.828125 -18.75 C 4.828125 -25.414062 7.15625 -30.328125 11.8125 -33.484375 C 16.476562 -36.648438 23.507812 -38.398438 32.90625 -38.734375 L 43.796875 -39.078125 L 43.796875 -41.828125 C 43.796875 -48.191406 40.539062 -51.375 34.03125 -51.375 C 29.007812 -51.375 23.113281 -49.859375 16.34375 -46.828125 L 10.671875 -58.390625 C 17.890625 -62.171875 25.898438 -64.0625 34.703125 -64.0625 C 43.117188 -64.0625 49.570312 -62.226562 54.0625 -58.5625 C 58.5625 -54.894531 60.8125 -49.316406 60.8125 -41.828125 L 60.8125 0 Z M 43.796875 -29.078125 L 37.171875 -28.859375 C 32.191406 -28.710938 28.484375 -27.8125 26.046875 -26.15625 C 23.617188 -24.507812 22.40625 -22.003906 22.40625 -18.640625 C 22.40625 -13.804688 25.175781 -11.390625 30.71875 -11.390625 C 34.675781 -11.390625 37.84375 -12.53125 40.21875 -14.8125 C 42.601562 -17.101562 43.796875 -20.140625 43.796875 -23.921875 Z M 43.796875 -29.078125 "/></g></g></g><g fill="#0057e1" fill-opacity="1"><g transform="translate(170.759835, 97.548075)"><g><path d="M 60.578125 0 L 55.75 -21.953125 L 49.234375 -49.6875 L 48.84375 -49.6875 L 37.390625 0 L 18.984375 0 L 1.125 -62.765625 L 18.1875 -62.765625 L 25.4375 -34.984375 C 26.59375 -30.003906 27.769531 -23.132812 28.96875 -14.375 L 29.3125 -14.375 C 29.457031 -17.21875 30.109375 -21.726562 31.265625 -27.90625 L 32.171875 -32.671875 L 39.921875 -62.765625 L 58.78125 -62.765625 L 66.140625 -32.671875 C 66.285156 -31.847656 66.515625 -30.628906 66.828125 -29.015625 C 67.148438 -27.410156 67.460938 -25.703125 67.765625 -23.890625 C 68.066406 -22.078125 68.335938 -20.296875 68.578125 -18.546875 C 68.828125 -16.804688 68.96875 -15.414062 69 -14.375 L 69.34375 -14.375 C 69.675781 -17.070312 70.269531 -20.765625 71.125 -25.453125 C 71.988281 -30.148438 72.609375 -33.328125 72.984375 -34.984375 L 80.515625 -62.765625 L 97.296875 -62.765625 L 79.21875 0 Z M 60.578125 0 "/></g></g></g><g fill="#0057e1" fill-opacity="1"><g transform="translate(269.181091, 97.548075)"><g><path d="M 48.84375 0 L 45.53125 -8.53125 L 45.078125 -8.53125 C 42.203125 -4.90625 39.238281 -2.390625 36.1875 -0.984375 C 33.132812 0.421875 29.15625 1.125 24.25 1.125 C 18.226562 1.125 13.484375 -0.59375 10.015625 -4.03125 C 6.554688 -7.476562 4.828125 -12.382812 4.828125 -18.75 C 4.828125 -25.414062 7.15625 -30.328125 11.8125 -33.484375 C 16.476562 -36.648438 23.507812 -38.398438 32.90625 -38.734375 L 43.796875 -39.078125 L 43.796875 -41.828125 C 43.796875 -48.191406 40.539062 -51.375 34.03125 -51.375 C 29.007812 -51.375 23.113281 -49.859375 16.34375 -46.828125 L 10.671875 -58.390625 C 17.890625 -62.171875 25.898438 -64.0625 34.703125 -64.0625 C 43.117188 -64.0625 49.570312 -62.226562 54.0625 -58.5625 C 58.5625 -54.894531 60.8125 -49.316406 60.8125 -41.828125 L 60.8125 0 Z M 43.796875 -29.078125 L 37.171875 -28.859375 C 32.191406 -28.710938 28.484375 -27.8125 26.046875 -26.15625 C 23.617188 -24.507812 22.40625 -22.003906 22.40625 -18.640625 C 22.40625 -13.804688 25.175781 -11.390625 30.71875 -11.390625 C 34.675781 -11.390625 37.84375 -12.53125 40.21875 -14.8125 C 42.601562 -17.101562 43.796875 -20.140625 43.796875 -23.921875 Z M 43.796875 -29.078125 "/></g></g></g><g fill="#0057e1" fill-opacity="1"><g transform="translate(68.171022, 134.832312)"><g><path d="M 3.671875 0 L 3.671875 -29.21875 L 9.875 -29.21875 L 9.875 -5.125 L 21.734375 -5.125 L 21.734375 0 Z M 3.671875 0 "/></g></g></g><g fill="#0057e1" fill-opacity="1"><g transform="translate(124.041724, 134.832312)"><g><path d="M 12.453125 -18.4375 C 11.160156 -18.4375 10.144531 -18.023438 9.40625 -17.203125 C 8.675781 -16.378906 8.257812 -15.21875 8.15625 -13.71875 L 16.703125 -13.71875 C 16.679688 -15.21875 16.289062 -16.378906 15.53125 -17.203125 C 14.769531 -18.023438 13.742188 -18.4375 12.453125 -18.4375 Z M 13.3125 0.40625 C 9.71875 0.40625 6.90625 -0.585938 4.875 -2.578125 C 2.851562 -4.566406 1.84375 -7.378906 1.84375 -11.015625 C 1.84375 -14.753906 2.773438 -17.644531 4.640625 -19.6875 C 6.515625 -21.738281 9.101562 -22.765625 12.40625 -22.765625 C 15.570312 -22.765625 18.03125 -21.863281 19.78125 -20.0625 C 21.539062 -18.269531 22.421875 -15.785156 22.421875 -12.609375 L 22.421875 -9.65625 L 8.015625 -9.65625 C 8.078125 -7.925781 8.585938 -6.570312 9.546875 -5.59375 C 10.515625 -4.625 11.863281 -4.140625 13.59375 -4.140625 C 14.9375 -4.140625 16.207031 -4.28125 17.40625 -4.5625 C 18.601562 -4.84375 19.859375 -5.285156 21.171875 -5.890625 L 21.171875 -1.171875 C 20.097656 -0.640625 18.957031 -0.242188 17.75 0.015625 C 16.539062 0.273438 15.0625 0.40625 13.3125 0.40625 Z M 13.3125 0.40625 "/></g></g></g><g fill="#0057e1" fill-opacity="1"><g transform="translate(180.971488, 134.832312)"><g><path d="M 22.640625 -22.34375 L 22.640625 -19.25 L 19.15625 -18.34375 C 19.789062 -17.34375 20.109375 -16.222656 20.109375 -14.984375 C 20.109375 -12.585938 19.269531 -10.71875 17.59375 -9.375 C 15.925781 -8.039062 13.609375 -7.375 10.640625 -7.375 L 9.53125 -7.4375 L 8.640625 -7.53125 C 8.015625 -7.050781 7.703125 -6.519531 7.703125 -5.9375 C 7.703125 -5.0625 8.816406 -4.625 11.046875 -4.625 L 14.859375 -4.625 C 17.304688 -4.625 19.171875 -4.09375 20.453125 -3.03125 C 21.742188 -1.976562 22.390625 -0.4375 22.390625 1.59375 C 22.390625 4.207031 21.296875 6.234375 19.109375 7.671875 C 16.929688 9.109375 13.804688 9.828125 9.734375 9.828125 C 6.617188 9.828125 4.238281 9.285156 2.59375 8.203125 C 0.945312 7.117188 0.125 5.597656 0.125 3.640625 C 0.125 2.296875 0.539062 1.171875 1.375 0.265625 C 2.21875 -0.640625 3.453125 -1.285156 5.078125 -1.671875 C 4.453125 -1.941406 3.90625 -2.378906 3.4375 -2.984375 C 2.96875 -3.585938 2.734375 -4.234375 2.734375 -4.921875 C 2.734375 -5.773438 2.976562 -6.484375 3.46875 -7.046875 C 3.96875 -7.609375 4.679688 -8.164062 5.609375 -8.71875 C 4.441406 -9.21875 3.515625 -10.023438 2.828125 -11.140625 C 2.140625 -12.265625 1.796875 -13.585938 1.796875 -15.109375 C 1.796875 -17.546875 2.585938 -19.429688 4.171875 -20.765625 C 5.765625 -22.097656 8.03125 -22.765625 10.96875 -22.765625 C 11.59375 -22.765625 12.332031 -22.707031 13.1875 -22.59375 C 14.050781 -22.476562 14.609375 -22.394531 14.859375 -22.34375 Z M 5.390625 3.15625 C 5.390625 4 5.789062 4.660156 6.59375 5.140625 C 7.40625 5.617188 8.539062 5.859375 10 5.859375 C 12.175781 5.859375 13.882812 5.554688 15.125 4.953125 C 16.363281 4.359375 16.984375 3.539062 16.984375 2.5 C 16.984375 1.65625 16.617188 1.070312 15.890625 0.75 C 15.160156 0.4375 14.03125 0.28125 12.5 0.28125 L 9.328125 0.28125 C 8.210938 0.28125 7.273438 0.539062 6.515625 1.0625 C 5.765625 1.59375 5.390625 2.289062 5.390625 3.15625 Z M 7.609375 -15.03125 C 7.609375 -13.820312 7.882812 -12.863281 8.4375 -12.15625 C 9 -11.445312 9.84375 -11.09375 10.96875 -11.09375 C 12.113281 -11.09375 12.953125 -11.445312 13.484375 -12.15625 C 14.023438 -12.863281 14.296875 -13.820312 14.296875 -15.03125 C 14.296875 -17.71875 13.1875 -19.0625 10.96875 -19.0625 C 8.726562 -19.0625 7.609375 -17.71875 7.609375 -15.03125 Z M 7.609375 -15.03125 "/></g></g></g><g fill="#0057e1" fill-opacity="1"><g transform="translate(236.84219, 134.832312)"><g><path d="M 17.390625 0 L 16.21875 -3.03125 L 16.046875 -3.03125 C 15.023438 -1.738281 13.96875 -0.84375 12.875 -0.34375 C 11.789062 0.15625 10.378906 0.40625 8.640625 0.40625 C 6.492188 0.40625 4.800781 -0.207031 3.5625 -1.4375 C 2.332031 -2.664062 1.71875 -4.410156 1.71875 -6.671875 C 1.71875 -9.046875 2.546875 -10.796875 4.203125 -11.921875 C 5.867188 -13.046875 8.375 -13.671875 11.71875 -13.796875 L 15.59375 -13.90625 L 15.59375 -14.890625 C 15.59375 -17.160156 14.429688 -18.296875 12.109375 -18.296875 C 10.328125 -18.296875 8.226562 -17.753906 5.8125 -16.671875 L 3.796875 -20.78125 C 6.367188 -22.132812 9.222656 -22.8125 12.359375 -22.8125 C 15.347656 -22.8125 17.640625 -22.15625 19.234375 -20.84375 C 20.835938 -19.539062 21.640625 -17.554688 21.640625 -14.890625 L 21.640625 0 Z M 15.59375 -10.359375 L 13.234375 -10.28125 C 11.460938 -10.21875 10.140625 -9.894531 9.265625 -9.3125 C 8.398438 -8.726562 7.96875 -7.835938 7.96875 -6.640625 C 7.96875 -4.921875 8.957031 -4.0625 10.9375 -4.0625 C 12.34375 -4.0625 13.46875 -4.46875 14.3125 -5.28125 C 15.164062 -6.09375 15.59375 -7.171875 15.59375 -8.515625 Z M 15.59375 -10.359375 "/></g></g></g><g fill="#0057e1" fill-opacity="1"><g transform="translate(294.311499, 134.832312)"><g><path d="M 9.296875 0 L 3.203125 0 L 3.203125 -31.109375 L 9.296875 -31.109375 Z M 9.296875 0 "/></g></g></g></svg>