<svg xmlns="http://www.w3.org/2000/svg" xmlns:xlink="http://www.w3.org/1999/xlink" width="500" zoomAndPan="magnify" viewBox="0 0 375 374.999991" height="500" preserveAspectRatio="xMidYMid meet" version="1.0"><defs><clipPath id="750185797f"><path d="M 8.382812 19.800781 L 366.882812 19.800781 L 366.882812 289 L 8.382812 289 Z M 8.382812 19.800781 " clip-rule="nonzero"/></clipPath><clipPath id="6fb0bed687"><path d="M 8.382812 221 L 366.882812 221 L 366.882812 230 L 8.382812 230 Z M 8.382812 221 " clip-rule="nonzero"/></clipPath><clipPath id="61e82f12ae"><path d="M 82 318 L 293 318 L 293 355.050781 L 82 355.050781 Z M 82 318 " clip-rule="nonzero"/></clipPath></defs><path fill="#fd6f00" d="M 182.410156 180.414062 C 181.9375 180.414062 181.46875 180.332031 181 180.164062 C 178.898438 179.386719 177.832031 177.050781 178.609375 174.953125 L 216.847656 71.820312 C 217.625 69.71875 219.949219 68.648438 222.058594 69.425781 C 224.15625 70.207031 225.226562 72.539062 224.449219 74.640625 L 186.210938 177.773438 C 185.609375 179.402344 184.0625 180.414062 182.410156 180.414062 Z M 182.410156 180.414062 " fill-opacity="1" fill-rule="nonzero"/><path fill="#fd6f00" d="M 91.472656 161.183594 C 78.269531 161.183594 67.53125 151.003906 67.53125 138.496094 L 67.53125 92.929688 C 67.53125 90.695312 69.347656 88.878906 71.585938 88.878906 C 73.820312 88.878906 75.636719 90.695312 75.636719 92.929688 L 75.636719 138.496094 C 75.636719 146.535156 82.738281 153.078125 91.472656 153.078125 C 100.210938 153.078125 107.3125 146.535156 107.3125 138.496094 L 107.3125 92.929688 C 107.3125 90.695312 109.125 88.878906 111.363281 88.878906 C 113.601562 88.878906 115.414062 90.695312 115.414062 92.929688 L 115.414062 138.496094 C 115.414062 151.003906 104.675781 161.183594 91.472656 161.183594 Z M 91.472656 161.183594 " fill-opacity="1" fill-rule="nonzero"/><path fill="#fd6f00" d="M 130.578125 161.183594 C 129.929688 161.183594 129.273438 161.027344 128.660156 160.695312 C 126.6875 159.632812 125.953125 157.179688 127.011719 155.207031 L 161.847656 90.546875 C 162.910156 88.578125 165.363281 87.839844 167.335938 88.902344 C 169.304688 89.964844 170.042969 92.421875 168.980469 94.390625 L 134.144531 159.050781 C 133.425781 160.402344 132.023438 161.183594 130.578125 161.183594 Z M 130.578125 161.183594 " fill-opacity="1" fill-rule="nonzero"/><path fill="#fd6f00" d="M 165.421875 161.183594 C 163.980469 161.183594 162.585938 160.410156 161.847656 159.050781 L 127.011719 94.390625 C 125.953125 92.421875 126.6875 89.964844 128.660156 88.902344 C 130.628906 87.839844 133.082031 88.578125 134.144531 90.546875 L 168.980469 155.207031 C 170.042969 157.179688 169.304688 159.632812 167.335938 160.695312 C 166.726562 161.019531 166.070312 161.183594 165.421875 161.183594 Z M 165.421875 161.183594 " fill-opacity="1" fill-rule="nonzero"/><path fill="#fd6f00" d="M 257.53125 161.183594 C 244.328125 161.183594 233.589844 151.003906 233.589844 138.496094 L 233.589844 92.929688 C 233.589844 90.695312 235.40625 88.878906 237.644531 88.878906 C 239.878906 88.878906 241.695312 90.695312 241.695312 92.929688 L 241.695312 138.496094 C 241.695312 146.535156 248.796875 153.078125 257.53125 153.078125 C 266.269531 153.078125 273.367188 146.535156 273.367188 138.496094 L 273.367188 92.929688 C 273.367188 90.695312 275.183594 88.878906 277.421875 88.878906 C 279.660156 88.878906 281.472656 90.695312 281.472656 92.929688 L 281.472656 138.496094 C 281.464844 151.003906 270.726562 161.183594 257.53125 161.183594 Z M 257.53125 161.183594 " fill-opacity="1" fill-rule="nonzero"/><path fill="#fd6f00" d="M 303.339844 165.574219 C 301.105469 165.574219 299.289062 163.757812 299.289062 161.523438 L 299.265625 88.078125 C 299.265625 85.839844 301.078125 84.023438 303.316406 84.023438 C 305.554688 84.023438 307.367188 85.839844 307.367188 88.078125 L 307.394531 161.523438 C 307.402344 163.757812 305.585938 165.566406 303.339844 165.574219 C 303.347656 165.574219 303.339844 165.574219 303.339844 165.574219 Z M 303.339844 165.574219 " fill-opacity="1" fill-rule="nonzero"/><path fill="#fd6f00" d="M 148.378906 268.660156 C 140.984375 268.660156 134.972656 262.644531 134.972656 255.253906 C 134.972656 247.863281 140.984375 241.847656 148.378906 241.847656 C 155.769531 241.847656 161.78125 247.863281 161.78125 255.253906 C 161.78125 262.644531 155.769531 268.660156 148.378906 268.660156 Z M 148.378906 249.953125 C 145.453125 249.953125 143.078125 252.328125 143.078125 255.253906 C 143.078125 258.179688 145.453125 260.554688 148.378906 260.554688 C 151.304688 260.554688 153.679688 258.179688 153.679688 255.253906 C 153.679688 252.328125 151.304688 249.953125 148.378906 249.953125 Z M 148.378906 249.953125 " fill-opacity="1" fill-rule="nonzero"/><path fill="#fd6f00" d="M 187.464844 268.660156 C 180.074219 268.660156 174.0625 262.644531 174.0625 255.253906 C 174.0625 247.863281 180.074219 241.847656 187.464844 241.847656 C 194.859375 241.847656 200.871094 247.863281 200.871094 255.253906 C 200.871094 262.644531 194.859375 268.660156 187.464844 268.660156 Z M 187.464844 249.953125 C 184.539062 249.953125 182.167969 252.328125 182.167969 255.253906 C 182.167969 258.179688 184.539062 260.554688 187.464844 260.554688 C 190.390625 260.554688 192.765625 258.179688 192.765625 255.253906 C 192.765625 252.328125 190.390625 249.953125 187.464844 249.953125 Z M 187.464844 249.953125 " fill-opacity="1" fill-rule="nonzero"/><path fill="#fd6f00" d="M 226.554688 268.660156 C 219.164062 268.660156 213.152344 262.644531 213.152344 255.253906 C 213.152344 247.863281 219.164062 241.847656 226.554688 241.847656 C 233.949219 241.847656 239.960938 247.863281 239.960938 255.253906 C 239.960938 262.644531 233.949219 268.660156 226.554688 268.660156 Z M 226.554688 249.953125 C 223.628906 249.953125 221.253906 252.328125 221.253906 255.253906 C 221.253906 258.179688 223.628906 260.554688 226.554688 260.554688 C 229.480469 260.554688 231.855469 258.179688 231.855469 255.253906 C 231.855469 252.328125 229.480469 249.953125 226.554688 249.953125 Z M 226.554688 249.953125 " fill-opacity="1" fill-rule="nonzero"/><g clip-path="url(#750185797f)"><path fill="#fd6f00" d="M 341.425781 288.945312 L 33.507812 288.945312 C 19.640625 288.945312 8.351562 277.664062 8.351562 263.789062 L 8.351562 45.082031 C 8.351562 31.214844 19.632812 19.921875 33.507812 19.921875 L 341.425781 19.921875 C 355.300781 19.921875 366.582031 31.207031 366.582031 45.082031 L 366.582031 263.789062 C 366.582031 277.664062 355.300781 288.945312 341.425781 288.945312 Z M 33.507812 28.027344 C 24.105469 28.027344 16.457031 35.679688 16.457031 45.082031 L 16.457031 263.789062 C 16.457031 273.191406 24.105469 280.839844 33.507812 280.839844 L 341.425781 280.839844 C 350.828125 280.839844 358.476562 273.191406 358.476562 263.789062 L 358.476562 45.082031 C 358.476562 35.679688 350.828125 28.027344 341.425781 28.027344 Z M 33.507812 28.027344 " fill-opacity="1" fill-rule="nonzero"/></g><g clip-path="url(#6fb0bed687)"><path fill="#fd6f00" d="M 362.53125 229.667969 L 12.402344 229.667969 C 10.167969 229.667969 8.351562 227.851562 8.351562 225.613281 C 8.351562 223.378906 10.167969 221.5625 12.402344 221.5625 L 362.53125 221.5625 C 364.765625 221.5625 366.582031 223.378906 366.582031 225.613281 C 366.582031 227.851562 364.765625 229.667969 362.53125 229.667969 Z M 362.53125 229.667969 " fill-opacity="1" fill-rule="nonzero"/></g><path fill="#fd6f00" d="M 252.214844 326.355469 C 249.980469 326.355469 248.164062 324.542969 248.164062 322.304688 L 248.164062 284.894531 C 248.164062 282.65625 249.980469 280.839844 252.214844 280.839844 C 254.453125 280.839844 256.269531 282.65625 256.269531 284.894531 L 256.269531 322.304688 C 256.269531 324.542969 254.453125 326.355469 252.214844 326.355469 Z M 124.636719 326.355469 C 122.402344 326.355469 120.585938 324.542969 120.585938 322.304688 L 120.585938 284.894531 C 120.585938 282.65625 122.402344 280.839844 124.636719 280.839844 C 126.875 280.839844 128.691406 282.65625 128.691406 284.894531 L 128.691406 322.304688 C 128.691406 324.542969 126.875 326.355469 124.636719 326.355469 Z M 124.636719 326.355469 " fill-opacity="1" fill-rule="nonzero"/><g clip-path="url(#61e82f12ae)"><path fill="#fd6f00" d="M 274.277344 355.136719 L 100.65625 355.136719 C 90.484375 355.136719 82.21875 346.863281 82.21875 336.699219 C 82.21875 326.527344 90.492188 318.261719 100.65625 318.261719 L 274.277344 318.261719 C 284.449219 318.261719 292.714844 326.535156 292.714844 336.699219 C 292.722656 346.863281 284.449219 355.136719 274.277344 355.136719 Z M 100.65625 326.355469 C 94.957031 326.355469 90.324219 330.992188 90.324219 336.691406 C 90.324219 342.386719 94.957031 347.023438 100.65625 347.023438 L 274.277344 347.023438 C 279.972656 347.023438 284.609375 342.386719 284.609375 336.691406 C 284.609375 330.992188 279.972656 326.355469 274.277344 326.355469 Z M 100.65625 326.355469 " fill-opacity="1" fill-rule="nonzero"/></g></svg>